<?xml version="1.0" encoding="UTF-8" standalone="no"?>
<svg
   width="1472pt"
   height="704pt"
   viewBox="0 0 1472 704"
   version="1.1"
   id="svg168"
   xml:space="preserve"
   xmlns="http://www.w3.org/2000/svg"
   xmlns:svg="http://www.w3.org/2000/svg"><defs
     id="defs168" /><g
     id="#f8f9f8ff" /><g
     id="#edeeedff" /><g
     id="#eeeeeeff" /><g
     id="#feffffff" /><g
     id="#e6e6e6ff" /><g
     id="#eeefeeff" /><g
     id="#ededecff" /><g
     id="#eeefefff" /><g
     id="#f1f1f1ff" /><g
     id="#eff1f0ff" /><g
     id="#efefefff" /><g
     id="#fffffeff" /><g
     id="#fdffffff" /><g
     id="#fcfdfdff" /><g
     id="#f6f6f6ff" /><g
     id="#eeeeedff" /><g
     id="g168"
     transform="translate(2.9574472,-45.292784)"><g
       id="#f8f9f8ff-0" /><g
       id="#ffffffff"><path
         fill="#ffffff"
         opacity="1"
         d="m 1355.53,298.5 c 2.59,-4.32 10.29,-1.48 9.28,3.55 0.34,2.55 -1.98,3.94 -3.51,5.5 -1.43,1.42 -1.55,3.43 -1.8,5.3 -0.19,-1.92 -0.09,-4 -1.27,-5.63 -3.31,-1.44 -5.33,-5.72 -2.7,-8.72 z"
         id="path1" /><path
         fill="#ffffff"
         opacity="1"
         d="m 1169.82,360.03 c -1.57,-4.41 3.43,-7.79 7.4,-6.38 1.2,1.58 3.09,3.1 2.55,5.35 0.57,5.67 -9.09,6.18 -9.95,1.03 z"
         id="path2" /><path
         fill="#ffffff"
         opacity="1"
         d="m 1289.59,370.07 c 0.57,-0.31 1.71,-0.94 2.29,-1.25 0.83,0.79 1.69,1.58 2.57,2.38 3.18,-0.41 7.35,1.01 7.14,4.86 0.66,4.32 -5.81,7.38 -8.65,4.04 -3.39,-2.5 0.97,-7.95 -3.35,-10.03 z"
         id="path3" /><path
         fill="#ffffff"
         opacity="1"
         d="m 1411.28,437.4 c 2.46,-0.58 5.68,-0.13 6.61,2.63 1.81,3.1 -1.57,7.26 -4.93,6.35 -4.28,-0.4 -5.22,-7 -1.68,-8.98 z"
         id="path4" /><path
         fill="#ffffff"
         opacity="1"
         d="m 776.06,455.27 c 3.58,-2.09 7.73,1.94 7.37,5.62 1.11,0.46 1.85,1.24 2.21,2.34 -3.32,-0.67 -6,2.19 -9.22,1.44 -4.28,-1.12 -4.25,-7.79 -0.36,-9.4 z"
         id="path5" /><path
         fill="#ffffff"
         opacity="1"
         d="m 1253.88,533.08 c -1.6,-2.87 -0.47,-6.47 1.85,-8.57 2.79,-0.25 6.66,0.2 7.32,3.55 1.18,2.58 -0.47,4.93 -2.33,6.57 -2.32,0.01 -5.46,0.92 -6.84,-1.55 z"
         id="path6" /><path
         fill="#ffffff"
         opacity="1"
         d="m 1355.53,565.79 c 0.64,-0.27 1.9,-0.81 2.54,-1.08 1.32,0.43 2.7,0.8 4.14,0.81 2.66,2.49 2.66,6.46 0.02,8.98 -2.5,0.2 -5.65,1 -7.32,-1.45 -2.13,-2.14 -1.18,-5.29 0.62,-7.26 z"
         id="path7" /></g><g
       id="#edeeedff-9" /><g
       id="#edededff" /><g
       id="#42b5daff"><path
         fill="#42b5da"
         opacity="1"
         d="m 1143.19,61.62 c 5.99,0.24 11.85,-1.32 17.83,-1.27 8.65,-0.12 17.29,-0.8 25.95,-0.81 10.83,-0.42 21.65,0.57 32.48,0.65 12.53,0.81 24.93,2.74 37.22,5.36 3.48,1.6 7.28,2.32 10.68,4.13 0.15,0.41 0.47,1.21 0.62,1.61 -11.37,-1.81 -22.54,-4.76 -33.96,-6.25 -12.24,-2.06 -24.69,-1.53 -37.03,-2.17 -16.43,-0.46 -32.82,1.07 -49.18,2.09 -1.7,0.19 -3.38,0.4 -5.06,0.54 -6.99,0.13 -13.77,2.02 -20.74,2.08 -15.68,2.38 -31.41,4.62 -47,7.65 -21.9,3.91 -43.58,9.02 -65.33,13.61 -3.45,1.59 -7.28,1.66 -10.97,1.06 2.07,-3.75 7.4,-2.79 10.86,-4.61 10,-2.6 20.21,-4.29 30.29,-6.51 11.9,-2.93 23.92,-5.35 36,-7.43 7.4,-1.04 14.71,-2.72 22.12,-3.71 3.6,0.02 7.02,-1.05 10.45,-2.02 4.24,0.11 8.38,-0.93 12.58,-1.38 7.39,-0.9 14.8,-1.64 22.19,-2.62 z"
         id="path8" /></g><g
       id="#eeeeeeff-4" /><g
       id="#44b5dbff"><path
         fill="#44b5db"
         opacity="1"
         d="m 1284.93,70.35 c 6.86,-2.84 14.91,4.57 13.4,11.65 -0.37,2.11 -1.76,3.81 -2.89,5.56 -3.77,1.17 -8.26,1.89 -11.81,-0.24 -6.29,-3.44 -5.78,-14.78 1.3,-16.97 z"
         id="path9" /></g><g
       id="#feffffff-8" /><g
       id="#43b5d8ff"><path
         fill="#43b5d8"
         opacity="1"
         d="m 967.27,80.35 c 4.37,-2.09 9.35,-0.23 13.11,2.32 3.69,3.27 5.4,8.48 5.09,13.31 -0.89,4.14 -3.41,8.3 -7.55,9.84 -4.38,1.6 -9.68,1.51 -13.55,-1.31 -5.65,-4.12 -7.62,-12.85 -3.62,-18.75 1.45,-2.53 3.97,-4.15 6.52,-5.41 z"
         id="path10" /></g><g
       id="#3aacd0ff"><path
         fill="#3aacd0"
         opacity="1"
         d="m 1150.26,83.6 c 5.91,-0.38 11.78,-1.42 17.74,-1.09 15.54,-0.36 31.09,-0.28 46.62,0.34 17.85,2.67 36.77,4.89 52.11,15.2 -1.67,1.27 -3.42,2.42 -5.2,3.51 -2.99,-1.82 -6.32,-2.99 -9.52,-4.36 -1.07,2.06 -1.89,4.33 -0.49,6.47 -13.14,-5.44 -27.24,-7.78 -41.32,-9.02 -15.41,-0.52 -30.84,-0.46 -46.25,0.04 -6.9,0.96 -13.87,1.09 -20.78,1.81 -22.26,2.02 -44.28,5.85 -66.35,9.61 -16.72,3.19 -33.3,6.76 -50.04,9.97 -0.86,-6.91 -9.74,-5.28 -13.77,-9.11 20.2,-4.94 40.45,-9.44 60.94,-13.03 12.95,-2.05 25.78,-4.95 38.82,-6.03 3.68,-1 7.48,-1.14 11.26,-1.49 8.67,-1.5 17.46,-2.12 26.23,-2.82 z"
         id="path11" /></g><g
       id="#3db4d8ff"><path
         fill="#3db4d8"
         opacity="1"
         d="m 1302.49,89.46 c 5.31,2.44 7.36,8.28 9.64,13.21 3.13,8.16 4.1,17.03 3.63,25.73 -2.31,24.66 -16.76,45.85 -32.12,64.43 -2.57,3.04 -5.31,5.91 -7.94,8.88 -18.2,20.15 -38.6,38.17 -59.79,55.09 -2.04,1.62 -4.09,3.21 -6.14,4.8 -21.54,15.6 -42.54,32.23 -66.39,44.27 0.1,-0.72 0.21,-1.44 0.34,-2.16 6.67,-5.49 14.18,-9.8 21.4,-14.51 15.29,-9.8 29.95,-20.55 44,-32.05 0.3,-0.23 0.9,-0.68 1.21,-0.9 28.83,-22.14 55.84,-46.97 78.32,-75.62 11.14,-15.22 21.52,-32.36 23.03,-51.6 0.21,-5 0.14,-10.03 -0.23,-15.02 -1.27,-8.74 -6.2,-16.32 -8.96,-24.55 z"
         id="path12" /></g><g
       id="#3399c2ff"><path
         fill="#3399c2"
         opacity="1"
         d="m 1252.01,97.2 c 3.2,1.37 6.53,2.54 9.52,4.36 3.8,3.08 8.06,5.59 12.6,7.42 1.36,0.66 2.89,0.26 4.34,0.14 4.22,4.33 6.38,10.04 7.59,15.87 2.68,15.99 -2.85,32.19 -11.57,45.47 -4.75,7.72 -10.46,14.75 -16.41,21.56 -14.61,17.11 -31.37,32.26 -49.06,46.12 -7.75,6.16 -15.52,12.32 -23.55,18.12 -14.69,10.52 -29.15,21.35 -44.26,31.28 -7.26,5.06 -14.92,9.52 -22.12,14.68 -9.37,6.15 -18.98,11.91 -28.44,17.9 -5.54,3.42 -11.01,6.95 -16.72,10.08 -6.93,4.24 -14.34,7.7 -21.02,12.34 -5.3,-0.07 -10.6,0.06 -15.89,0.21 -1.56,3.63 -3.12,7.28 -4.34,11.04 -7.56,3.73 -14.6,8.42 -22.17,12.14 -2.32,-2.63 -5.47,-4.73 -9.06,-3.28 1.54,-1.93 1.31,-4.07 -0.27,-5.9 3.04,-1.65 6.08,-3.32 9.16,-4.93 10.17,-5.09 19.8,-11.16 29.84,-16.51 7.73,-4.13 15.13,-8.83 22.71,-13.23 5.37,-3.22 10.83,-6.28 16.19,-9.53 21.83,-13.28 42.95,-27.66 64.05,-42.07 6.31,-4.15 12.54,-8.43 18.71,-12.78 16.67,-11.76 33.03,-24 48.6,-37.2 10.41,-8.55 20.4,-17.63 29.82,-27.26 10.97,-11.84 22.71,-23.67 29.17,-38.73 2.47,-6.43 5.34,-12.96 5.19,-19.99 0.5,-6.86 -1.57,-13.82 -5.77,-19.25 -4.33,-5.66 -11.02,-8.72 -17.33,-11.6 -1.4,-2.14 -0.58,-4.41 0.49,-6.47 z"
         id="path13" /></g><g
       id="#49add0ff"><path
         fill="#49add0"
         opacity="1"
         d="m 1266.73,98.05 c 2.72,1.97 5.35,4.08 7.8,6.4 1.36,1.5 2.63,3.1 3.94,4.67 -1.45,0.12 -2.98,0.52 -4.34,-0.14 -4.54,-1.83 -8.8,-4.34 -12.6,-7.42 1.78,-1.09 3.53,-2.24 5.2,-3.51 z"
         id="path14" /></g><g
       id="#3fbadfff"><path
         fill="#3fbadf"
         opacity="1"
         d="m 967.01,117.93 c 14.33,-3.37 28.48,-7.45 42.91,-10.35 0.77,-0.15 2.32,-0.46 3.09,-0.61 4.03,3.83 12.91,2.2 13.77,9.11 -5.72,1.46 -11.4,3.06 -17.12,4.47 -10.76,2.62 -21.64,4.77 -32.28,7.81 -12.96,2.87 -25.63,6.93 -38.44,10.38 -21.67,5.98 -43.2,12.45 -64.63,19.24 -22.27,6.88 -44.33,14.4 -66.4,21.87 -11.86,4.12 -23.72,8.22 -35.5,12.56 -10.6,3.52 -20.97,7.7 -31.49,11.48 -22.24,8.1 -44.31,16.64 -66.34,25.3 -10.73,4.54 -21.5,9.14 -32.68,12.45 -1.71,-2.83 -3.98,-6.01 -2.95,-9.49 0.36,-2.03 1.98,-3.48 3.84,-4.18 10.79,-4.33 21.7,-8.37 32.35,-13.03 18.21,-7.19 36.6,-13.92 54.8,-21.14 3.76,-1.02 7.38,-2.46 11.04,-3.78 11.25,-3.89 22.18,-8.62 33.49,-12.34 11.53,-3.82 23,-7.82 34.46,-11.87 22.41,-7.28 44.75,-14.78 67.18,-22.02 16.75,-5.18 33.56,-10.17 50.39,-15.06 5.69,-1.37 11.33,-2.97 17.01,-4.44 7.8,-2.24 15.64,-4.33 23.5,-6.36 z"
         id="path15" /></g><g
       id="#edeeeeff" /><g
       id="#fefefeff"><path
         fill="#fefefe"
         opacity="1"
         d="m 793.39,398 c 2.21,-2.55 6.19,-3.91 8.83,-1.13 0.37,1.24 0.88,2.48 1.49,3.65 -0.52,0.86 -1.06,1.71 -1.61,2.54 -1.01,0.94 -2.07,1.82 -3.1,2.72 -1.69,-0.38 -3.57,-0.67 -4.65,-2.18 -1.48,-1.47 -0.75,-3.76 -0.96,-5.6 z"
         id="path16" /></g><g
       id="#ecededff"><path
         fill="#eceded"
         opacity="1"
         d="m 894.2,292.93 c -2.33,-3.03 -0.53,-8.72 3.75,-8.46 3.6,-0.7 6.17,3.34 5.16,6.54 -0.76,1.33 -1.85,2.43 -2.81,3.6 -2.09,-0.17 -4.56,-0.01 -6.1,-1.68 z"
         id="path17" /><path
         fill="#eceded"
         opacity="1"
         d="m 1313.33,302.31 c 1.52,-1.19 3.65,-0.88 5.19,0.15 3.38,1.69 2.8,7.07 -0.02,9.06 -1.77,-0.1 -3.8,0.53 -5.28,-0.71 -2.76,-1.89 -2.93,-6.82 0.11,-8.5 z"
         id="path18" /></g><g
       id="#f1c001ff"><path
         fill="#f1c001"
         opacity="1"
         d="m 82.08,207.39 c 11.77,-2.09 23.85,-1.32 35.67,0.01 1.3,19.5 -0.3,39.09 0.09,58.63 0.56,4.43 0.27,9.02 1.82,13.29 3.21,-0.05 6.42,-0.05 9.63,-0.05 1.56,-8.02 0.69,-16.2 1.11,-24.3 0.01,-11.15 -0.07,-22.3 0.06,-33.45 18.68,6.28 34.2,20.48 43.86,37.48 4.8,8.96 8.36,18.65 9.61,28.78 -5.97,0.11 -12.14,-0.42 -17.79,1.9 -0.02,3.99 -0.02,7.99 0.05,11.98 7.29,0.11 14.6,-0.15 21.86,0.49 4.1,-0.63 8.52,-0.82 12,1.86 3.44,3.66 3.79,9.67 0.49,13.53 -6.97,1.51 -14.1,0.77 -21.15,0.67 -48.76,0.16 -97.52,0.33 -146.28,-0.04 -9.93,-1.12 -19.96,0.96 -29.88,-0.53 C 2.06,317.41 1.06,316.72 0,316.21 v -12.22 c 0.16,-0.33 0.48,-1 0.64,-1.33 3.33,-1.26 6.92,-0.99 10.4,-1.01 7.54,-0.03 15.08,0.05 22.62,-0.04 -0.06,-4.48 -0.1,-8.99 -0.94,-13.41 -5.8,-0.15 -11.6,-0.4 -17.38,-0.96 0.89,-10.67 5.49,-20.72 10.86,-29.86 9.45,-14.87 23.05,-27.49 39.51,-34.16 0.72,-0.27 2.15,-0.82 2.87,-1.1 0.02,11.68 0.01,23.35 0,35.02 0.11,7.8 -0.8,15.71 1.04,23.38 3.74,0.09 7.29,-1.27 11.01,-1.44 -0.16,-7.36 -0.02,-14.72 0.02,-22.08 0.14,-11.64 1.61,-23.33 0.14,-34.95 -0.58,-4.93 -0.07,-9.9 1.29,-14.66 m 17.8,59.83 c 1.28,2.18 4.07,1.57 6.2,1.68 1.03,-0.11 4.22,0.13 2.97,-1.82 -3.02,-0.71 -6.15,-0.42 -9.17,0.14 z"
         id="path19" /></g><g
       id="#42b8ddff"><path
         fill="#42b8dd"
         opacity="1"
         d="m 598.65,237.66 c 2.61,-3.58 7.04,-5.51 11.44,-5.4 10.69,1.42 19.21,14.7 13.06,24.45 -3.38,4.64 -8.67,8.39 -14.68,7.44 -4.73,-1.21 -8.75,-4.29 -11.42,-8.33 -2.86,-5.64 -2.82,-13.29 1.6,-18.16 z"
         id="path20" /></g><g
       id="#e6e6e6ff-8" /><g
       id="#3cb3d9ff"><path
         fill="#3cb3d9"
         opacity="1"
         d="m 571.76,257.82 c 2.1,-0.78 4.27,-1.37 6.5,-1.67 0.18,0.38 0.55,1.12 0.74,1.49 1.14,2.99 1.91,6.1 2.99,9.11 -3.67,2.39 -7.84,3.82 -11.82,5.59 -10.35,4.32 -20.68,8.68 -30.91,13.3 -19.49,8.57 -38.95,17.22 -58.11,26.53 -3.91,1.9 -7.94,3.52 -11.87,5.36 -1.71,0.84 -3.4,1.69 -5.11,2.51 -10.91,4.93 -21.57,10.4 -32.27,15.76 -5.27,2.61 -10.86,4.62 -15.86,7.75 -4.07,0.14 -8.06,-0.65 -12.08,-1.06 -5.15,-0.1 -10.31,-0.1 -15.46,-0.05 4.88,-3.35 10.47,-5.39 15.7,-8.11 9.08,-4.25 18.01,-8.8 27.12,-12.99 13.51,-6.1 26.61,-13.06 40.12,-19.16 22.79,-10.51 45.59,-20.99 68.65,-30.89 10.57,-4.45 20.95,-9.37 31.67,-13.47 z"
         id="path21" /><path
         fill="#3cb3d9"
         opacity="1"
         d="m 552.21,554.13 c 3.96,-1.36 7.98,-2.49 11.95,-3.8 5.58,3.57 13.88,0.93 18.5,6.46 -14.14,5.49 -28.59,10.1 -42.94,14.97 -2.12,0.75 -4.19,1.63 -6.29,2.42 -20.88,6.76 -41.78,13.47 -62.75,19.94 -7.38,1.91 -14.51,4.59 -21.84,6.66 -0.34,-1.65 -0.69,-3.28 -1.05,-4.91 3.15,-2.45 7.29,-2.73 10.67,-4.73 -1.18,-1.83 -2.37,-3.65 -3.57,-5.44 5.38,-1.61 10.7,-3.45 16.08,-5.08 5.53,-1.65 11.05,-3.38 16.51,-5.28 17.35,-5.2 34.38,-11.43 51.68,-16.79 l 0.98,-0.33 c 4.05,-1.28 8.08,-2.63 12.07,-4.09 z"
         id="path22" /></g><g
       id="#eeefeeff-2" /><g
       id="#f3c826ff"><path
         fill="#f3c826"
         opacity="1"
         d="m 99.88,267.22 c 3.02,-0.56 6.15,-0.85 9.17,-0.14 1.25,1.95 -1.94,1.71 -2.97,1.82 -2.13,-0.11 -4.92,0.5 -6.2,-1.68 z"
         id="path23" /></g><g
       id="#a2a9adff"><path
         fill="#a2a9ad"
         opacity="1"
         d="m 1381.88,280.98 c -1.25,-5.97 5.39,-11.66 11.05,-8.97 5.99,2.38 6.67,12.04 0.55,14.7 -0.45,0.26 -1.35,0.78 -1.79,1.04 -0.07,19.01 0.27,38.03 -0.22,57.03 -1.08,0.4 -2.13,0.84 -3.14,1.33 -0.13,-14.2 0.37,-28.4 -0.06,-42.59 0.19,-5.21 0.11,-10.43 0.09,-15.64 -2.8,-1.55 -5.95,-3.44 -6.48,-6.9 m 5.46,-5.64 c -1.41,1.67 -2.09,3.68 -2,5.87 1.35,2.4 4.35,3.23 6.87,2.22 3.01,-1.08 2.93,-5.54 0.86,-7.49 -1.7,-1.12 -3.85,-0.51 -5.73,-0.6 z"
         id="path24" /></g><g
       id="#fdfdfeff"><path
         fill="#fdfdfe"
         opacity="1"
         d="m 1387.34,275.34 c 1.88,0.09 4.03,-0.52 5.73,0.6 2.07,1.95 2.15,6.41 -0.86,7.49 -2.52,1.01 -5.52,0.18 -6.87,-2.22 -0.09,-2.19 0.59,-4.2 2,-5.87 z"
         id="path25" /></g><g
       id="#868f9eff"><path
         fill="#868f9e"
         opacity="1"
         d="m 890.38,287.9 c 0.67,-5.79 9.1,-8.52 13.01,-4.18 2.89,2.43 2.12,6.5 1.95,9.82 5.42,4.67 11.1,9.07 16.3,14 -0.2,5.83 -0.09,11.67 -0.21,17.51 -0.02,2.6 -0.27,5.32 0.87,7.75 0.11,3.27 -0.01,6.55 0.07,9.83 -0.22,0 -0.68,-0.01 -0.9,-0.01 0.71,-7.27 -1.68,-14.34 -0.92,-21.63 0.05,-3.99 0.06,-7.99 -0.14,-11.97 -5.52,-4.44 -10.88,-9.08 -16.41,-13.5 -1.32,0.6 -2.61,1.25 -3.98,1.68 -5.22,1.32 -10.91,-3.97 -9.64,-9.3 m 3.82,5.03 c 1.54,1.67 4.01,1.51 6.1,1.68 0.96,-1.17 2.05,-2.27 2.81,-3.6 1.01,-3.2 -1.56,-7.24 -5.16,-6.54 -4.28,-0.26 -6.08,5.43 -3.75,8.46 z"
         id="path26" /></g><g
       id="#56cff2ff"><path
         fill="#56cff2"
         opacity="1"
         d="m 1328.06,286.55 c 4.96,-0.21 9.92,-0.06 14.89,-0.11 10.83,0.02 21.68,-0.22 32.51,0.16 0.15,22.55 -0.08,45.11 0.3,67.65 4.15,-2.77 8.08,-5.9 12.57,-8.14 1.01,-0.49 2.06,-0.93 3.14,-1.33 5.39,-1.93 10.99,-3.24 16.66,-4.01 9.96,-1.06 20.17,-0.6 29.7,2.67 15.57,4.98 29.15,17.19 34.17,32.92 v 33.06 c -1.71,0.08 -3.37,0.46 -4.95,1.02 -0.64,-0.24 -1.25,-0.48 -1.84,-0.71 -0.82,0.77 -1.63,1.54 -2.41,2.32 -0.16,11.97 -0.05,23.94 -0.02,35.91 -0.28,6.61 -0.24,13.22 -0.1,19.83 -0.21,-0.21 -0.63,-0.65 -0.84,-0.87 -0.45,-11.62 -0.11,-23.27 -0.14,-34.91 0.17,-7.65 -0.27,-15.33 0.51,-22.95 -0.31,-9.55 -1.85,-19.31 -6.47,-27.79 -6.65,-12.19 -18.27,-21.58 -31.69,-25.24 -18.3,-5.87 -39.52,-1.64 -54.11,10.89 -3.03,2.48 -5.87,5.18 -8.57,8.01 0.06,-22.46 0.09,-44.92 -0.07,-67.38 1.53,-1.56 3.85,-2.95 3.51,-5.5 1.01,-5.03 -6.69,-7.87 -9.28,-3.55 -2.63,3 -0.61,7.28 2.7,8.72 0.11,16.26 -0.03,32.51 0.12,48.76 -0.09,7.66 0.31,15.35 -0.18,22.99 -2.46,5.19 -5.39,10.28 -6.22,16.08 -0.87,5.96 -0.52,12.02 -0.57,18.03 -1.36,-0.92 -2.7,-1.83 -4.03,-2.74 -0.57,0.93 -1.12,1.88 -1.63,2.84 0.03,-28.32 -0.04,-56.65 0,-84.97 1.92,-1.6 4.57,-3.29 3.86,-6.22 -0.29,-5.57 -9.44,-6.71 -10.59,-1.04 -1.34,3.64 2.49,5.49 4.17,7.96 -0.07,21.68 0.44,43.39 -0.36,65.07 0.08,4.98 -0.26,9.98 0.1,14.96 -3.69,-3.6 -8.2,-7.33 -13.51,-7.8 -0.52,7.84 -0.52,15.7 -0.52,23.55 l -0.45,0.71 c -0.02,-27.14 -0.05,-54.28 -0.14,-81.41 0.28,-5.67 -0.94,-11.3 -0.43,-16.96 0.69,-7.33 0.27,-14.7 0.44,-22.05 -0.14,-6.14 0.27,-12.3 -0.23,-18.43 z"
         id="path27" /><path
         fill="#56cff2"
         opacity="1"
         d="m 1373.76,381.83 c 10.15,-12.99 28.41,-18.42 44.15,-13.81 17.82,4.46 30.11,21.85 31.92,39.61 -0.51,0.9 -0.97,1.82 -1.41,2.75 -1.94,-1.09 -3.82,-3.7 -6.28,-2.55 -2.48,1.21 -3.99,4.1 -3.23,6.82 -0.84,-1.33 -0.86,-3.6 -2.76,-3.79 -1.96,-0.54 -3.97,-0.79 -5.94,-1.13 -0.34,-2.28 -0.67,-4.56 -1.15,-6.81 -1.46,-7.48 -5.16,-15.23 -12.44,-18.54 -2.67,-1.64 -5.71,-2.54 -8.79,-2.85 -5.31,-0.28 -10.84,-0.07 -15.67,2.38 -7,3.3 -12.72,9.51 -15.08,16.92 -2.43,6.43 -1.29,13.43 -1.69,20.14 -3.84,-0.17 -7.7,-0.54 -11.37,-1.69 l -0.6,-0.44 c -0.01,-2.95 -0.07,-5.9 -0.04,-8.84 -0.24,-10.28 4.19,-20.16 10.38,-28.17 z"
         id="path28" /></g><g
       id="#56cff1ff"><path
         fill="#56cff1"
         opacity="1"
         d="m 828.28,294.41 c 8.49,-1.08 17.1,-1.08 25.6,-0.03 6.43,-0.01 12.74,1.22 19,2.54 10.58,2.49 21.11,5.47 31.02,10.02 2.97,1.38 6.11,2.56 8.66,4.7 -1.06,3.4 -2.28,6.75 -3.64,10.04 -2.93,7.45 -6.04,14.82 -9.24,22.15 -0.81,1.71 -1.59,3.51 -2.97,4.85 -2.14,0.55 -4.13,-0.63 -6.01,-1.43 -4.77,-2.24 -9.71,-4.09 -14.65,-5.89 -13.44,-4.77 -27.77,-7.2 -42.04,-6.71 -7.88,0.63 -16.71,1.85 -22.41,7.9 -5.18,5.21 -5.8,14.4 -1.36,20.22 5.39,5.64 13.59,6.65 20.82,8.4 -2.31,0.68 -3.35,2.7 -3.79,4.88 -2.32,-2.22 -5.43,-1.48 -7.43,0.73 -7.47,-1.03 -15.14,-3.57 -20.8,-8.72 -6.21,-6.17 -6.74,-16.03 -4.01,-23.94 3.44,-10.12 12.63,-17.1 22.23,-20.97 13.01,-4.79 27.26,-4.19 40.79,-2.35 9.32,1.43 18.69,3.39 27.3,7.37 0.36,2.35 1.22,5 3.69,5.93 3.69,1.63 7.71,-2.46 7.19,-6.13 -0.67,-2.71 -3.41,-5.13 -6.31,-4.41 -1.1,0.59 -2.16,1.25 -3.16,1.98 -6.65,-1.84 -12.97,-4.79 -19.83,-5.85 -11.5,-1.91 -23.22,-3.89 -34.89,-2.41 -15.65,0.57 -31.03,9.29 -38.48,23.27 -1.38,-0.53 -2.75,-1.05 -4.11,-1.58 0.5,-1.71 0.79,-3.47 1.06,-5.22 -0.76,-0.09 -2.28,-0.26 -3.04,-0.34 -1.26,-0.19 -2.51,-0.39 -3.75,-0.6 7.79,-12.58 22.3,-19.51 36.61,-21.29 19.04,-2.27 38.38,-0.8 57.12,3.01 1.26,1.98 2.7,4.6 5.52,4.08 5.12,0.56 7.65,-7.09 3.22,-9.79 -3.08,-3.08 -7.06,-0.12 -8.69,2.91 -9.47,-0.82 -18.75,-3.46 -28.31,-3.4 -12.36,-1.38 -24.93,-0.62 -37.03,2.21 -11.85,2.75 -23,9.52 -29.91,19.66 -7.64,10.7 -9.8,25.2 -5.18,37.56 2.82,8.3 8.79,15.35 16.17,20.01 6.19,4.01 13.18,6.55 20.2,8.72 -3.82,0.78 -7.65,-1.95 -11.22,0.38 -2.64,-2.78 -6.62,-1.42 -8.83,1.13 -3.05,-1.09 -6.15,-3.31 -9.5,-2.13 -2.48,0.85 -5,0 -7.39,-0.68 -0.02,0.53 -0.07,1.58 -0.09,2.11 -4.18,-3.8 -8.1,-7.99 -10.71,-13.05 -6.82,-11.75 -7.65,-25.9 -5.71,-39.06 1.27,-8.07 4.69,-15.6 9.36,-22.25 9.13,-12.94 23.46,-21.4 38.65,-25.23 6.65,-1.67 13.38,-3.28 20.28,-3.3 z"
         id="path29" /></g><g
       id="#969ca7ff"><path
         fill="#969ca7"
         opacity="1"
         d="m 1312.61,299.56 c 4.49,-2.66 11.22,1.13 10.95,6.46 0.51,3.79 -2.53,6.7 -5.77,7.97 -0.51,1.95 -0.5,3.98 -0.51,5.98 -0.15,13.35 0.13,26.71 -0.12,40.06 -0.14,3.97 -1.45,7.95 -0.48,11.92 -0.78,-1.1 -1.54,-2.19 -2.32,-3.26 l 1.46,0.15 c -2.11,-18.03 -0.58,-36.21 -1.18,-54.31 l -0.63,-0.41 c -2.99,-1.6 -6.19,-4.37 -5.64,-8.14 -0.17,-2.82 1.81,-5.24 4.24,-6.42 m 0.72,2.75 c -3.04,1.68 -2.87,6.61 -0.11,8.5 1.48,1.24 3.51,0.61 5.28,0.71 2.82,-1.99 3.4,-7.37 0.02,-9.06 -1.54,-1.03 -3.67,-1.34 -5.19,-0.15 z"
         id="path30" /></g><g
       id="#47bae2ff"><path
         fill="#47bae2"
         opacity="1"
         d="m 1127.41,307.52 c 2.69,-2.09 6.73,-1.57 8.92,1 2.34,3.79 1.61,10.8 -3.73,11.36 -1.45,-0.09 -2.89,-0.08 -4.3,0.02 -4.65,-2.2 -5.45,-9.69 -0.89,-12.38 z"
         id="path31" /></g><g
       id="#edfafcff"><path
         fill="#edfafc"
         opacity="1"
         d="m 1358.23,307.22 c 1.18,1.63 1.08,3.71 1.27,5.63 0.25,-1.87 0.37,-3.88 1.8,-5.3 0.16,22.46 0.13,44.92 0.07,67.38 2.7,-2.83 5.54,-5.53 8.57,-8.01 14.59,-12.53 35.81,-16.76 54.11,-10.89 13.42,3.66 25.04,13.05 31.69,25.24 4.62,8.48 6.16,18.24 6.47,27.79 -0.78,7.62 -0.34,15.3 -0.51,22.95 0.03,11.64 -0.31,23.29 0.14,34.91 0.21,0.22 0.63,0.66 0.84,0.87 2.38,1.73 3.72,4.35 2.15,7.17 -1,0.55 -1.98,1.09 -2.96,1.62 -1.04,-0.88 -2.06,-1.73 -3.08,-2.57 -0.38,-4.04 0.74,-8.01 0.59,-12.05 -0.1,-5.25 -0.08,-10.5 -0.03,-15.74 0.07,-11.82 0.09,-23.64 0.04,-35.45 0.02,-8.66 -0.81,-17.59 -4.63,-25.49 -7.81,-17.54 -26.79,-28.78 -45.76,-28.92 -19.28,-1 -38.98,9.07 -48.92,25.71 -2.71,4.56 -5.3,9.45 -5.63,14.84 -0.73,7.46 -0.06,14.94 -0.26,22.42 0.05,12.89 0.04,25.79 0.01,38.68 -2.39,5.04 -6.25,9.15 -10.14,13.05 -1.67,1.42 -1.8,3.69 -2.42,5.64 -0.52,0.14 -1.56,0.42 -2.08,0.56 1.47,-3.48 -0.2,-8.02 2.89,-10.7 1.01,-13.65 0.84,-27.34 0.8,-41.02 -0.03,-5.54 0.22,-11.09 -0.35,-16.6 -0.36,-4.98 -0.02,-9.98 -0.1,-14.96 0.8,-21.68 0.29,-43.39 0.36,-65.07 -1.68,-2.47 -5.51,-4.32 -4.17,-7.96 1.15,-5.67 10.3,-4.53 10.59,1.04 0.71,2.93 -1.94,4.62 -3.86,6.22 -0.04,28.32 0.03,56.65 0,84.97 -0.14,3.5 -0.07,7.02 -0.03,10.53 0.03,7.09 0,14.18 0.01,21.27 -0.25,7.36 0.74,14.91 -1.48,22.06 2.89,-2.86 5.75,-6.02 6.99,-9.97 0.46,-3.99 0.16,-8.02 0.28,-12.02 0,-7.4 -0.11,-14.81 -0.04,-22.21 0.01,-3.26 -0.04,-6.51 -0.07,-9.76 0.05,-6.01 -0.3,-12.07 0.57,-18.03 0.83,-5.8 3.76,-10.89 6.22,-16.08 0.49,-7.64 0.09,-15.33 0.18,-22.99 -0.15,-16.25 -0.01,-32.5 -0.12,-48.76 z"
         id="path32" /></g><g
       id="#f7fdfeff"><path
         fill="#f7fdfe"
         opacity="1"
         d="m 812.16,310.54 c 12.1,-2.83 24.67,-3.59 37.03,-2.21 9.56,-0.06 18.84,2.58 28.31,3.4 1.63,-3.03 5.61,-5.99 8.69,-2.91 4.43,2.7 1.9,10.35 -3.22,9.79 -2.82,0.52 -4.26,-2.1 -5.52,-4.08 -18.74,-3.81 -38.08,-5.28 -57.12,-3.01 -14.31,1.78 -28.82,8.71 -36.61,21.29 -6.17,8.29 -7.48,19.23 -5.69,29.18 2.41,12.37 11.95,22.47 23.32,27.38 10.49,4.65 21.88,6.65 33.17,8.24 8.41,1.58 16.82,3.19 25.26,4.65 7.62,1.57 15.56,2.46 22.56,6.1 3.06,1.66 5.85,3.75 8.46,6.05 -1.2,0.17 -2.4,0.22 -3.6,0.18 -1.19,-0.94 -2.4,-1.84 -3.68,-2.62 -4.61,-2.66 -9.75,-4.19 -14.9,-5.35 -12.08,-2.43 -24.21,-4.59 -36.39,-6.41 -6.3,-1.07 -12.57,-2.3 -18.79,-3.72 -7.02,-2.17 -14.01,-4.71 -20.2,-8.72 -7.38,-4.66 -13.35,-11.71 -16.17,-20.01 -4.62,-12.36 -2.46,-26.86 5.18,-37.56 6.91,-10.14 18.06,-16.91 29.91,-19.66 z"
         id="path33" /></g><g
       id="#212a55ff"><path
         fill="#212a55"
         opacity="1"
         d="m 921.43,325.05 c 0.12,-5.84 0.01,-11.68 0.21,-17.51 l 0.67,0.8 c 0.25,4.18 0.12,8.37 0.18,12.57 0.02,3.96 -0.01,7.93 -0.19,11.89 -1.14,-2.43 -0.89,-5.15 -0.87,-7.75 z"
         id="path34" /><path
         fill="#212a55"
         opacity="1"
         d="m 486.13,345.47 c 1.24,-0.28 2.5,-0.45 3.77,-0.52 12.45,0.48 24.93,0.34 37.36,-0.5 2.26,6.17 4.41,12.39 6.78,18.51 1.61,7.23 4.46,14.09 6.6,21.17 0.13,0.18 0.4,0.54 0.53,0.73 3.91,11.69 8.07,23.31 11.95,35.01 2.56,9.38 6.7,18.39 7.96,28.07 1.51,-2.21 3.1,-4.4 4.12,-6.89 7,-18.18 13.67,-36.47 20.05,-54.87 3.41,-10.23 7.13,-20.34 10.68,-30.51 1.18,-3.27 2.66,-6.47 3,-9.97 10.73,-1.41 21.67,0.17 32.47,-0.88 1.33,-0.05 2.66,-0.11 4.01,-0.18 2.44,2.81 2.89,6.63 4.28,9.97 1.34,4.17 3.09,8.21 4.21,12.46 2.58,6.48 4.78,13.13 7.05,19.73 4.72,13.49 9.32,27.02 13.88,40.56 l 0.42,1.04 c 1.84,5.7 4.33,11.22 5.54,17.11 0.8,0.01 1.61,0.02 2.42,0.04 0.91,-2.85 1.76,-5.74 3.07,-8.43 0.19,-1.07 0.52,-2.07 1.02,-3.01 5.74,-15.2 11.16,-30.51 16.24,-45.94 l 0.43,-1.15 c 2.89,-8.23 5.52,-16.54 8.21,-24.84 2.17,-5.79 4.12,-11.66 5.79,-17.61 13.55,0.31 27.1,0.09 40.64,0.05 -1.98,6.07 -4.74,11.87 -6.31,18.07 -2.97,6.55 -4.82,13.54 -7.49,20.21 l -0.36,1.06 c -0.45,1.36 -0.96,2.72 -1.62,4.01 -0.86,3.02 -1.94,5.98 -3.04,8.93 -0.42,1.8 -1.07,3.54 -2.02,5.12 -0.17,0.98 -0.33,1.96 -0.47,2.95 -3.56,7.01 -5.24,14.86 -8.43,22.06 -0.93,2.94 -1.71,5.96 -3.22,8.68 -0.83,3.52 -2.21,6.89 -3.49,10.27 l -0.25,0.68 c -5.75,16.64 -11.97,33.11 -17.67,49.76 -10.41,-0.13 -20.82,0.22 -31.22,-0.2 -3.46,-0.42 -6.93,-0.72 -10.41,-0.58 -2.2,-6.2 -4.43,-12.39 -6.35,-18.67 -3.24,-8.87 -6.13,-17.94 -9.5,-26.78 -0.27,-0.85 -0.54,-1.69 -0.81,-2.52 -1.63,-3.79 -2.43,-7.9 -4.17,-11.63 -3.87,-12.29 -7.6,-24.63 -12.6,-36.53 -1.2,-0.06 -2.4,-0.12 -3.58,-0.17 -0.2,1.49 -0.28,3.02 -0.79,4.46 -2.81,8.14 -5.27,16.39 -8.01,24.55 -2.3,6.17 -4.6,12.35 -6.72,18.59 l -0.31,0.82 c -3.27,9.75 -6.45,19.52 -10.05,29.15 -1.85,6.41 -4.52,12.54 -6.43,18.93 -13.43,-0.32 -26.88,0.4 -40.3,-0.48 -1.28,-0.1 -3.16,0.05 -3.5,-1.58 -5.88,-16.75 -12.32,-33.31 -18.1,-50.1 -0.43,-1.27 -0.85,-2.55 -1.25,-3.81 -2.02,-4.88 -3.41,-9.99 -5.28,-14.92 -4.02,-12.1 -8.64,-24 -12.61,-36.11 -2.43,-6.39 -4.49,-12.91 -7.01,-19.26 -3.32,-7.93 -5.45,-16.32 -9.11,-24.11 z"
         id="path35" /></g><g
       id="#f7fcfdff"><path
         fill="#f7fcfd"
         opacity="1"
         d="m 793.56,340.55 c 7.45,-13.98 22.83,-22.7 38.48,-23.27 11.67,-1.48 23.39,0.5 34.89,2.41 6.86,1.06 13.18,4.01 19.83,5.85 1,-0.73 2.06,-1.39 3.16,-1.98 2.9,-0.72 5.64,1.7 6.31,4.41 0.52,3.67 -3.5,7.76 -7.19,6.13 -2.47,-0.93 -3.33,-3.58 -3.69,-5.93 -8.61,-3.98 -17.98,-5.94 -27.3,-7.37 -13.53,-1.84 -27.78,-2.44 -40.79,2.35 -9.6,3.87 -18.79,10.85 -22.23,20.97 -2.73,7.91 -2.2,17.77 4.01,23.94 5.66,5.15 13.33,7.69 20.8,8.72 2,-2.21 5.11,-2.95 7.43,-0.73 0.5,1.79 1.97,3.99 0.2,5.55 -1.23,2.53 -4.22,1.98 -6.5,1.97 -0.95,-2 -1.77,-4.94 -4.4,-5.06 -9,-1.49 -18.65,-5.47 -23.03,-14.02 -2.89,-4.67 -2.41,-10.35 -2.21,-15.6 0.12,-2.91 1.09,-5.69 2.23,-8.34 z"
         id="path36" /></g><g
       id="#212a54ff"><path
         fill="#212a54"
         opacity="1"
         d="m 33.11,318.17 c 48.76,0.37 97.52,0.2 146.28,0.04 1.44,1.73 2.75,3.56 4.04,5.41 0.9,1.67 2.82,2.92 3.1,4.86 -11.18,8.54 -23.34,15.78 -34.59,24.25 -5.39,-5.67 -11.71,-10.99 -19.25,-13.42 -1.81,-1.73 -4.44,-1.92 -6.69,-2.77 -21.04,-6.94 -45.94,-2.41 -62.42,12.67 -10.52,8.93 -17.3,22.07 -19.17,35.64 -0.06,0.29 -0.18,0.85 -0.25,1.14 -1.44,3.84 -0.87,8.04 -1.03,12.06 0.22,3.28 -0.43,6.83 1.13,9.87 -0.07,3.84 1.26,7.41 2.28,11.04 3.44,10.26 9.13,19.87 17.32,27.05 1.07,0.99 2.23,1.87 3.39,2.75 4.63,3.86 10.2,6.24 15.69,8.57 4.28,1.41 8.67,2.48 13.09,3.31 6.62,0.36 13.26,0.14 19.89,-0.02 4.66,-0.44 9.1,-2.11 13.65,-3.14 0.29,-0.26 0.85,-0.79 1.13,-1.05 5.33,-1.24 9.64,-4.84 13.93,-8.01 4.26,-2.88 6.38,-8.4 11.19,-10.34 4.01,3.63 8.64,6.53 12.53,10.31 5.53,5.25 11.43,10.08 17.55,14.61 -5.55,8.37 -13.88,14.19 -21.6,20.36 -7.7,6.13 -16.89,9.9 -26.06,13.22 -4.18,-0.04 -8,2.06 -12.21,1.83 -9.18,2.2 -18.71,1.13 -28.07,1.31 -11.09,-1.41 -22.22,-3.32 -32.74,-7.3 -3.06,-1.18 -6.09,-2.4 -9.15,-3.55 -5.77,-3.52 -12.06,-6.18 -17.57,-10.12 -6.95,-5.36 -13.73,-11.07 -19.17,-18 -3.53,-4.23 -6.26,-9.03 -9.19,-13.66 -2.13,-3.52 -3.47,-7.43 -5.48,-11 -0.88,-2.7 -1.87,-5.35 -2.77,-8.03 C 1.66,425.53 1.56,422.89 0,420.75 v -47.19 c 3.81,-19.64 15.01,-37.21 28.92,-51.3 1.45,-1.32 2.94,-2.58 4.19,-4.09 z"
         id="path37" /><path
         fill="#212a54"
         opacity="1"
         d="m 284.75,348.57 c 6.5,-1.01 13.16,-1.6 19.65,-0.16 0.1,8.53 -0.03,17.07 0.07,25.6 -0.07,3.98 1.19,7.85 0.91,11.85 -1.1,0.53 -2.2,1.07 -3.29,1.61 -2.62,-2.06 -6.01,-1.97 -9.09,-2.68 -8.23,0.09 -17.11,1.23 -23.81,6.47 -7.9,5.91 -13.32,15.07 -14.7,24.81 -1.44,1.62 -0.98,3.94 -1.24,5.92 -0.4,11.99 -0.02,23.99 0.17,35.99 0.06,14.47 0.09,28.95 0,43.42 -14.01,0.19 -28.02,-0.12 -42.03,0.05 -0.33,-13.42 0.01,-26.85 -0.07,-40.28 -0.03,-4.67 -0.08,-9.33 -0.05,-13.99 0.05,-20.78 -0.02,-41.57 -0.01,-62.35 0.08,-11.43 -0.13,-22.87 0.16,-34.29 12.65,-0.15 25.3,0.07 37.95,-0.21 2.13,6.72 -0.14,13.92 1.32,20.78 0.52,-1.26 1.19,-2.43 2.01,-3.5 5.06,-5.47 11.13,-9.82 17.51,-13.61 4.68,-1.54 8.87,-4.77 14,-4.69 0.13,-0.18 0.4,-0.56 0.54,-0.74 z"
         id="path38" /><path
         fill="#212a54"
         opacity="1"
         d="m 1314.36,381.69 c 0.69,-0.38 1.4,-0.75 2.13,-1.1 0.21,8.02 0.03,16.05 0.21,24.08 -13.6,-0.1 -27.21,-0.01 -40.82,-0.03 -1.34,-0.02 -2.67,-0.04 -3.98,-0.07 -0.67,-2.48 -3.68,-2.67 -5.26,-4.37 -2.7,-2.49 -6.11,-3.91 -9.27,-5.67 l -1.03,-0.03 c -1.53,-0.31 -3.03,-0.67 -4.51,-1.04 1.56,-0.04 3.14,-0.04 4.74,-0.02 5.44,1.81 9.68,5.7 14.54,8.54 0.37,0.37 1.1,1.11 1.46,1.48 1.38,-0.04 2.78,-0.06 4.2,-0.07 12.94,0.01 25.89,-0.05 38.84,0.09 -0.06,-5.88 0.01,-11.76 -0.03,-17.63 0.09,-1.5 -0.61,-2.86 -1.22,-4.16 z"
         id="path39" /></g><g
       id="#ededeeff"><path
         fill="#ededee"
         opacity="1"
         d="m 1456.37,554.73 c -1.55,-3.98 3.77,-8.01 7.11,-5.16 3.81,2.41 1.81,8.43 -2.47,8.85 -1.96,-0.59 -4.27,-1.38 -4.64,-3.69 z"
         id="path40" /></g><g
       id="#8d92a2ff"><path
         fill="#8d92a2"
         opacity="1"
         d="m 1210.46,327.64 c 1.74,-1.38 3.37,-2.99 5.42,-3.91 2.35,-0.56 4.89,0.07 6.77,1.59 4.25,3 3.36,10.92 -1.8,12.45 -3.12,1.55 -6.44,-0.26 -9.03,-1.98 l -0.67,-0.39 c -6.4,1.99 -12.76,4.54 -18.14,8.61 -4.09,3.08 -7.84,6.57 -11.63,10.01 0.56,2.2 1.43,4.56 0.53,6.81 -1.2,4.73 -7.8,7 -11.65,3.97 -4.3,-2.67 -3.98,-9.74 0.2,-12.39 2.61,-2.68 6.4,-1.4 9.37,-0.14 3.94,-3.21 7.54,-6.84 11.68,-9.82 5.61,-4.49 12.51,-6.73 19.11,-9.33 -0.04,-1.83 -0.07,-3.66 -0.16,-5.48 m 5.25,-1.33 c -3.33,1.96 -3.15,6.96 -0.39,9.33 2.05,-0.17 4.6,0.64 6.23,-1.04 1.94,-1.7 0.69,-4.53 0.75,-6.73 -1.99,-1.28 -4.28,-1.67 -6.59,-1.56 m -45.89,33.72 c 0.86,5.15 10.52,4.64 9.95,-1.03 0.54,-2.25 -1.35,-3.77 -2.55,-5.35 -3.97,-1.41 -8.97,1.97 -7.4,6.38 z"
         id="path41" /></g><g
       id="#9fa9afff"><path
         fill="#9fa9af"
         opacity="1"
         d="m 986.17,333.02 c -0.73,-5.39 5.74,-9.75 10.57,-7.7 3.54,1.16 5.8,5.1 5.45,8.72 -0.49,3.34 -3.23,5.52 -5.81,7.32 0,6.04 -0.21,12.08 0.05,18.11 -1.2,0.67 -2.43,1.3 -3.63,1.95 -0.33,-6.59 -0.37,-13.19 -0.34,-19.79 -3.06,-1.91 -6.93,-4.42 -6.29,-8.61 m 3.23,-0.07 c -0.89,3.15 2.32,4.53 4.59,5.62 1.42,-0.75 3.09,-1.25 4.2,-2.51 0.9,-1.63 0.25,-3.56 0.19,-5.31 -2.32,-3.73 -9.2,-2.52 -8.98,2.2 z"
         id="path42" /></g><g
       id="#f2f4f5ff"><path
         fill="#f2f4f5"
         opacity="1"
         d="m 1215.71,326.31 c 2.31,-0.11 4.6,0.28 6.59,1.56 -0.06,2.2 1.19,5.03 -0.75,6.73 -1.63,1.68 -4.18,0.87 -6.23,1.04 -2.76,-2.37 -2.94,-7.37 0.39,-9.33 z"
         id="path43" /></g><g
       id="#eff2f2ff"><path
         fill="#eff2f2"
         opacity="1"
         d="m 989.4,332.95 c -0.22,-4.72 6.66,-5.93 8.98,-2.2 0.06,1.75 0.71,3.68 -0.19,5.31 -1.11,1.26 -2.78,1.76 -4.2,2.51 -2.27,-1.09 -5.48,-2.47 -4.59,-5.62 z"
         id="path44" /></g><g
       id="#5ecff0ff"><path
         fill="#5ecff0"
         opacity="1"
         d="m 778.03,361.99 c -1.79,-9.95 -0.48,-20.89 5.69,-29.18 1.24,0.21 2.49,0.41 3.75,0.6 -0.72,7.61 -4.3,14.83 -3.58,22.61 0.45,10.44 6.76,20.16 15.7,25.4 2.82,1.55 5.75,2.89 8.73,4.11 -0.74,0.79 -1.48,1.59 -2.2,2.39 -0.72,-0.52 -1.43,-1.03 -2.13,-1.54 -0.88,0.99 -1.78,1.98 -2.64,2.99 -11.37,-4.91 -20.91,-15.01 -23.32,-27.38 z"
         id="path45" /></g><g
       id="#eefafdff"><path
         fill="#eefafd"
         opacity="1"
         d="m 787.47,333.41 c 0.76,0.08 2.28,0.25 3.04,0.34 -0.27,1.75 -0.56,3.51 -1.06,5.22 -2.8,7.66 -4.14,16.19 -1.66,24.13 2.22,7.56 8.27,13.38 14.95,17.22 5.53,3.29 11.95,4.36 18.06,6.09 14.27,3.31 28.79,5.44 43.2,8.09 12.71,2.34 26.45,5.43 35.34,15.62 -3.69,2.35 -5.85,-2.91 -8.88,-4.18 -4.84,-3.1 -10.28,-5.14 -15.84,-6.52 -10.96,-2.82 -22.2,-4.25 -33.34,-6.15 -11.08,-2.13 -22.33,-3.8 -32.96,-7.74 -2.98,-1.22 -5.91,-2.56 -8.73,-4.11 -8.94,-5.24 -15.25,-14.96 -15.7,-25.4 -0.72,-7.78 2.86,-15 3.58,-22.61 z"
         id="path46" /></g><g
       id="#60cdeeff"><path
         fill="#60cdee"
         opacity="1"
         d="m 787.79,363.1 c -2.48,-7.94 -1.14,-16.47 1.66,-24.13 1.36,0.53 2.73,1.05 4.11,1.58 -1.14,2.65 -2.11,5.43 -2.23,8.34 -0.2,5.25 -0.68,10.93 2.21,15.6 4.38,8.55 14.03,12.53 23.03,14.02 2.63,0.12 3.45,3.06 4.4,5.06 -0.05,0.71 -0.13,2.13 -0.17,2.84 -6.11,-1.73 -12.53,-2.8 -18.06,-6.09 -6.68,-3.84 -12.73,-9.66 -14.95,-17.22 z"
         id="path47" /></g><g
       id="#58cff1ff"><path
         fill="#58cff1"
         opacity="1"
         d="m 1210.19,346.88 c 20.23,-9.19 43.3,-9.64 64.75,-5.06 15.58,4.39 30.21,13.3 39.42,26.87 0.78,1.07 1.54,2.16 2.32,3.26 0.87,1.33 1.83,2.62 2.57,4.04 0.47,2.01 -1.48,3.41 -2.76,4.6 -0.73,0.35 -1.44,0.72 -2.13,1.1 l -0.26,-0.1 c -8.08,5.14 -16.12,10.34 -24.34,15.26 -1.45,0.91 -3.02,1.59 -4.6,2.18 -2.53,-3.45 -5.38,-6.64 -8.44,-9.61 -2.26,-2.26 -4.91,-4.07 -7.72,-5.54 -10.87,-6.28 -25.03,-6.1 -35.91,0.03 -7.36,4.49 -12.79,11.89 -14.95,20.23 -2.45,7.18 -1.66,14.82 -1.89,22.26 -0.62,-2.91 -1.18,-5.83 -1.69,-8.75 -1.78,-0.16 -3.54,-0.42 -5.28,-0.75 0.06,-3.37 -0.15,-6.74 -0.57,-10.07 1.86,-1.11 4.62,-2.11 3.86,-4.85 0.22,-4.41 -5.85,-4.89 -8.03,-1.89 -2.05,-1.12 -4.23,-1.93 -6.47,-2.5 3.78,-10 10.48,-19.07 19.46,-24.97 6.85,-4.71 15.08,-6.73 23.21,-7.82 8.37,-0.67 16.97,-0.32 25,2.38 3.86,1.38 7.31,3.65 10.82,5.75 -0.26,2.51 -0.32,5.04 -0.22,7.56 1.97,1.89 5.1,2.9 7.59,1.39 2.51,-1.46 2.02,-4.98 1.4,-7.36 -1.45,-2.79 -5.18,-1.68 -7.35,-3.46 -4.8,-3.23 -9.97,-6.06 -15.65,-7.32 -6.31,-1.81 -12.92,-1.42 -19.39,-1.4 -20.97,-0.01 -41.19,14.76 -47.22,34.9 -1.71,-1.99 -3.64,-3.8 -6.06,-4.87 5.37,-14.19 16.28,-26.66 30.69,-32.04 14.57,-5.48 30.85,-6.11 45.99,-2.71 8.78,1.86 16.48,6.72 23.25,12.45 4.32,2.08 -0.04,7.53 3.35,10.03 2.84,3.34 9.31,0.28 8.65,-4.04 0.21,-3.85 -3.96,-5.27 -7.14,-4.86 -0.88,-0.8 -1.74,-1.59 -2.57,-2.38 -11.63,-11.13 -28,-16.22 -43.87,-16.2 -13.76,-0.03 -28.05,2.88 -39.38,11.05 -9.58,6.52 -17.1,15.93 -21.12,26.82 -4.95,-1.72 -7.73,-6.87 -12.87,-8.08 7.14,-15.59 19.98,-28.36 35.55,-35.53 z"
         id="path48" /></g><g
       id="#5ad0f1ff"><path
         fill="#5ad0f1"
         opacity="1"
         d="m 1076.88,343.11 c 22.22,-6.35 49.16,-1.95 64.76,16.2 6.38,7.38 11.03,16.34 12.8,25.98 0.47,3.21 0.87,6.45 1.65,9.62 0.51,7.26 0.26,14.55 0.27,21.82 l -0.96,0.4 c -0.11,-4.34 -0.14,-8.68 -0.48,-13 -4.21,1.62 -8.64,3.05 -13.2,2.18 l -1.05,-0.09 c 0.46,-11.94 -1.19,-24.54 -8.43,-34.41 -8.5,-11.91 -23.18,-17.49 -37.27,-18.99 -10.91,-1.29 -21.92,0.88 -32.09,4.79 -2.74,0.95 -5.49,2.32 -8.45,2.08 -1.3,-1.18 -2.42,-2.53 -3.59,-3.79 -2.23,3.12 -2.9,6.96 -4.33,10.46 -1.65,4.16 -3.46,8.27 -5.1,12.44 -0.77,-1.84 -1.97,-3.43 -3.5,-4.68 -3.19,-2.68 -5.36,-6.43 -8.99,-8.6 1.41,-3.85 3.19,-7.62 3.76,-11.73 1.22,-3.76 2.78,-7.41 4.34,-11.04 5.29,-0.15 10.59,-0.28 15.89,-0.21 2.82,1.09 5.86,0.96 8.85,0.92 -0.64,2.33 -1.09,4.71 -1.23,7.13 5.35,-2.68 10.46,-6.02 16.35,-7.48 z"
         id="path49" /></g><g
       id="#202954ff"><path
         fill="#202954"
         opacity="1"
         d="m 380.33,344.3 c 2.68,-0.82 5.6,-0.63 8.17,-1.86 5.15,-0.05 10.31,-0.05 15.46,0.05 4.02,0.41 8.01,1.2 12.08,1.06 22.83,2.92 44.79,16.68 54.75,37.86 2.36,4.28 3.79,8.98 5.51,13.51 3.34,12.51 5.12,25.89 2.01,38.66 -2.41,0.01 -4.82,0.02 -7.22,0.02 -22.38,-0.01 -44.76,-0.01 -67.15,-0.04 -12.74,-0.1 -25.49,-0.09 -38.23,-0.08 0.85,6.16 3.02,12.26 7.32,16.89 9.13,11.55 24.76,16.39 39.05,14.66 1.27,-0.26 2.49,-0.7 3.66,-1.3 4.26,0.16 8.02,-2.03 11.98,-3.24 6.59,-2.79 12.89,-6.44 18.24,-11.23 0.32,-0.03 0.94,-0.09 1.26,-0.12 7.8,7.94 14.63,16.77 22.42,24.73 -2.07,1.53 -3.32,3.84 -5.18,5.58 -8.07,6.97 -17.42,12.54 -27.65,15.69 -5.73,1.57 -11.53,3.21 -17.51,3.38 -4.96,1.38 -10.13,1.21 -15.23,1.15 -5.65,-0.2 -11.27,-1.87 -16.91,-1.46 l -0.57,0.47 c 0.41,-3.01 -3.81,-1.48 -5.58,-2.36 -16.68,-5.1 -32.96,-13.79 -43.75,-27.87 -4.6,-6.33 -8.47,-13.22 -11.01,-20.64 -1.2,-4.22 -2.57,-8.44 -2.9,-12.84 -1.59,-2.01 -0.92,-4.71 -1.18,-7.05 -1.1,-14.55 0.35,-29.51 6.73,-42.81 3.05,-5.47 6.22,-10.87 10,-15.87 l 0.26,-0.28 c 11.17,-11.74 25.49,-20.5 41.17,-24.66 M 394,374.94 c -3.4,0.55 -6.99,1.28 -9.81,3.37 -3.33,1.4 -6.41,3.62 -8.77,6.38 l -0.47,-0.02 c -4.65,6.12 -9.14,13.04 -9.66,20.92 l -0.94,-0.67 c -0.02,1.19 -0.03,2.39 -0.02,3.59 24.8,0.1 49.61,-0.14 74.41,0.12 0.44,-3.83 -1.17,-7.41 -1.21,-11.18 l -1.07,0.11 c -0.77,-5.3 -5.07,-9.24 -8.28,-13.26 -0.35,0.02 -1.06,0.07 -1.41,0.1 l -0.36,-1.45 c -4.33,-2.82 -8.66,-6.14 -13.95,-6.8 l 0.74,-0.52 c -3.41,-0.38 -6.79,-0.98 -10.11,-1.83 -3.1,-0.37 -6.14,0.28 -9.09,1.14 z"
         id="path50" /></g><g
       id="#5acef2ff"><path
         fill="#5acef2"
         opacity="1"
         d="m 921.47,342.62 c 0.22,0 0.68,0.01 0.9,0.01 5.56,-0.1 11.09,0.49 16.63,0.55 6.04,-0.75 12.11,-0.44 18.18,-0.45 2.23,3.38 3.5,7.25 5.06,10.97 1.98,4.89 4.35,9.62 6.26,14.54 0.59,1.64 1.52,3.12 2.62,4.49 0.69,3.25 2,6.31 3.36,9.33 -1.33,5.41 -7.06,9.24 -12.47,8.86 -0.18,0.3 -0.53,0.88 -0.7,1.17 -3.37,-7.22 -6.5,-14.54 -9.56,-21.9 -1.01,-2.63 -2.31,-5.23 -2.53,-8.08 0.96,-2.36 4.12,-4.27 2.75,-7.09 -0.81,-4.09 -6.65,-6 -9.15,-2.29 -3.17,3.3 -0.35,7.93 3.21,9.43 3.36,10.99 8.73,21.19 13.27,31.71 -1.54,-1.35 -3.24,-2.88 -5.44,-2.38 -0.57,3.02 -2.15,5.68 -3.31,8.49 -2.55,-7.11 -6.09,-13.81 -8.56,-20.94 -1.83,-5.06 -4.15,-9.91 -6.17,-14.89 -1.86,-3.29 2.71,-6.79 0,-10 -2.44,-4.59 -10.13,-2.28 -9.64,2.85 -0.69,3.69 3.04,5.76 6.22,5.79 6.05,14.34 12.41,28.56 17.89,43.15 -2.27,2.14 -4.91,3.95 -8.03,4.51 -1.63,-1.67 -3.39,-3.19 -5.22,-4.62 -0.19,-0.23 -0.56,-0.69 -0.75,-0.92 -1.94,-3.34 -3.14,-7.05 -5.11,-10.37 -0.49,0.07 -1.46,0.22 -1.95,0.3 0.43,-0.3 1.31,-0.9 1.74,-1.2 -0.86,-3.72 -2.5,-7.18 -3.94,-10.68 -4.18,-10.69 -9.06,-21.08 -13.22,-31.77 -0.86,-2.61 -2.89,-5.07 -2.5,-7.92 3.15,-1.16 6.8,-0.35 10.16,-0.65 z"
         id="path51" /></g><g
       id="#a6aeb1ff"><path
         fill="#a6aeb1"
         opacity="1"
         d="m 831.87,356.05 c -1.28,-4.48 2.15,-10.19 7.13,-9.77 4.01,-0.61 7.16,2.86 8.74,6.16 10.38,0.56 20.83,-0.43 31.17,0.88 3.34,0.54 7.72,-1.41 10.16,1.7 -2.67,1.73 -6.08,0.65 -9.07,0.98 -10.75,0.74 -21.53,0.4 -32.29,0.53 -1.55,2.99 -4.19,5.62 -7.73,5.83 -3.55,-0.41 -7.23,-2.66 -8.11,-6.31 m 4.43,-4.76 c -1.58,1.29 -0.7,3.55 -0.83,5.3 0.79,0.66 1.59,1.32 2.4,2 2.82,0.57 5.5,-0.83 6.61,-3.49 -0.65,-1.52 -0.83,-3.35 -2.09,-4.52 -1.98,-0.46 -4.53,-0.92 -6.09,0.71 z"
         id="path52" /></g><g
       id="#f0f2f2ff"><path
         fill="#f0f2f2"
         opacity="1"
         d="m 836.3,351.29 c 1.56,-1.63 4.11,-1.17 6.09,-0.71 1.26,1.17 1.44,3 2.09,4.52 -1.11,2.66 -3.79,4.06 -6.61,3.49 -0.81,-0.68 -1.61,-1.34 -2.4,-2 0.13,-1.75 -0.75,-4.01 0.83,-5.3 z"
         id="path53" /></g><g
       id="#f7fdfdff"><path
         fill="#f7fdfd"
         opacity="1"
         d="m 942.82,352.73 c 2.5,-3.71 8.34,-1.8 9.15,2.29 1.37,2.82 -1.79,4.73 -2.75,7.09 0.22,2.85 1.52,5.45 2.53,8.08 3.06,7.36 6.19,14.68 9.56,21.9 4.22,9.44 8.94,18.64 13.58,27.88 5.09,10.77 9.91,21.67 15.47,32.2 1.74,2.89 5.23,3.28 8.29,3.21 0.99,1.55 2.18,3.04 2.74,4.83 0.61,1.75 -1.09,2.88 -1.97,4.13 -1.78,-0.34 -4.18,0.59 -5.38,-1.12 -1.65,-1.55 -1.46,-3.86 -1.55,-5.9 -1.91,-1.68 -3.91,-3.36 -5.13,-5.64 -6.34,-11.2 -11.25,-23.11 -16.96,-34.63 -3.59,-7.77 -7.65,-15.33 -11.1,-23.18 -4.54,-10.52 -9.91,-20.72 -13.27,-31.71 -3.56,-1.5 -6.38,-6.13 -3.21,-9.43 z"
         id="path54" /></g><g
       id="#fafdfdff"><path
         fill="#fafdfd"
         opacity="1"
         d="m 926.18,357 c -0.49,-5.13 7.2,-7.44 9.64,-2.85 2.71,3.21 -1.86,6.71 0,10 2.02,4.98 4.34,9.83 6.17,14.89 2.47,7.13 6.01,13.83 8.56,20.94 3.25,6.65 5.93,13.55 8.73,20.41 4.61,11.27 9.81,22.31 13.7,33.87 -1.93,-0.05 -2.89,1.39 -3.72,2.87 1.2,2.33 3.9,2.99 5.9,1.19 -0.25,0.99 -0.49,1.99 -0.72,3 -1.21,0.42 -2.4,0.84 -3.59,1.27 -0.86,-0.87 -1.69,-1.72 -2.51,-2.6 -0.42,-2.75 0.59,-5.31 1.18,-7.92 -0.88,-3.97 -2.9,-7.55 -4.42,-11.28 -3.11,-7.01 -5.82,-14.18 -8.88,-21.21 -1.88,-4.59 -4.16,-9.01 -5.93,-13.64 -5.48,-14.59 -11.84,-28.81 -17.89,-43.15 -3.18,-0.03 -6.91,-2.1 -6.22,-5.79 z"
         id="path55" /></g><g
       id="#fafdfeff"><path
         fill="#fafdfe"
         opacity="1"
         d="m 1062.88,357.61 c 10.17,-3.91 21.18,-6.08 32.09,-4.79 14.09,1.5 28.77,7.08 37.27,18.99 7.24,9.87 8.89,22.47 8.43,34.41 0.04,15.63 -0.04,31.27 0.08,46.91 1.55,1.35 4.19,2.36 4,4.84 0.7,3.66 -3.61,6.68 -6.83,4.87 -0.83,-0.89 -1.62,-1.81 -2.38,-2.71 0.05,-1.26 0.11,-2.52 0.19,-3.76 0.85,-0.82 1.72,-1.64 2.59,-2.45 0.08,-8.95 0.01,-17.91 0.02,-26.86 -0.24,-7.76 0.4,-15.54 -0.47,-23.27 -0.23,-7.27 0.11,-14.8 -2.79,-21.65 -5.44,-14.08 -19.4,-23.7 -34.05,-25.97 -13.25,-1.87 -27.13,-0.69 -39.51,4.54 -3.77,1.96 -7.67,3.64 -11.53,5.38 -2.83,4.37 -4.13,9.52 -6.22,14.26 -6.14,13.57 -11.2,27.6 -17.08,41.27 -3.69,9.81 -7.78,19.45 -11.96,29.06 -4.28,9.55 -7.93,19.38 -12.17,28.96 -1.92,6.28 -5.67,11.74 -8.35,17.7 -5.19,10.6 -11.66,21.79 -22.62,27.23 -8.94,4.51 -19.06,2.24 -28.59,2.13 -3.43,-0.63 -5.5,4.42 -8.97,2.24 -4.1,-1.65 -2.98,-9.37 1.8,-8.72 2.74,-0.55 4.07,1.94 5.03,4.03 9.1,0.11 18.52,2.35 27.37,-0.77 11.25,-4.76 18.26,-15.62 23.25,-26.28 1.94,-4.24 4.82,-9.34 2.23,-13.93 -5.23,-9.43 -9.07,-19.52 -13.72,-29.22 -3.91,-9.12 -8.31,-18.02 -11.63,-27.38 -2.04,-0.09 -3.6,-1.45 -4.66,-3.06 -0.35,-2.78 1.37,-5.35 4.25,-5.6 1.15,0.58 2.44,1.02 3.34,2.04 0.62,1.98 -0.44,4.02 -0.84,5.95 4.44,8.13 7.21,17.03 11.22,25.37 4.14,8.83 7.34,18.15 12.44,26.49 0.89,2.26 3.47,1.58 5.38,1.73 4.11,-8.59 7.54,-17.49 11.33,-26.22 3.04,-8.2 6.83,-16.08 10.06,-24.2 3.74,-8.2 6.52,-16.78 10.14,-25.03 3.71,-8.35 6.64,-17.01 10.39,-25.34 1.64,-4.17 3.45,-8.28 5.1,-12.44 1.43,-3.5 2.1,-7.34 4.33,-10.46 1.17,1.26 2.29,2.61 3.59,3.79 2.96,0.24 5.71,-1.13 8.45,-2.08 z"
         id="path56" /><path
         fill="#fafdfe"
         opacity="1"
         d="m 1204.54,400.09 c 2.18,-3 8.25,-2.52 8.03,1.89 0.76,2.74 -2,3.74 -3.86,4.85 -0.18,5.39 -0.31,10.79 -0.9,16.15 -0.18,10.17 0.98,20.61 5.77,29.74 2.65,0.43 7,0.55 6.96,4.23 -0.19,3.55 3.51,4.85 5.95,6.5 13.4,8.24 30.84,8.01 44.56,0.6 0.7,-1.52 1.06,-3.42 2.63,-4.34 2.14,-1.71 4.97,-0.98 7.49,-0.89 1.9,-2.37 2.51,-5.34 2.57,-8.31 1.87,-0.11 3.76,-0.04 5.64,0.17 0.13,1.55 0.24,3.11 0.31,4.68 -3,0.89 -5.7,2.46 -8.28,4.16 -0.54,1.93 -0.94,3.89 -0.99,5.9 -3.55,2.42 -8.13,0 -11.72,2.31 -15.59,7.71 -35.77,5.35 -48.78,-6.32 -1.39,0.34 -2.77,0.7 -4.12,1.07 -1.15,-0.86 -2.92,-1.28 -3.32,-2.81 -0.5,-2.2 0.1,-4.44 0.37,-6.63 -2.55,-2.17 -4.03,-5.23 -5.17,-8.31 -2.81,-10.37 -2.26,-21.23 -1.82,-31.84 0.49,-2.27 0.7,-4.59 0.69,-6.91 -1.88,-1.45 -2.03,-3.71 -2.01,-5.89 z"
         id="path57" /></g><g
       id="#edfbfdff"><path
         fill="#edfbfd"
         opacity="1"
         d="m 1208.63,363.67 c 11.33,-8.17 25.62,-11.08 39.38,-11.05 15.87,-0.02 32.24,5.07 43.87,16.2 -0.58,0.31 -1.72,0.94 -2.29,1.25 -6.77,-5.73 -14.47,-10.59 -23.25,-12.45 -15.14,-3.4 -31.42,-2.77 -45.99,2.71 -14.41,5.38 -25.32,17.85 -30.69,32.04 -1.65,4.59 -2.86,9.36 -3.27,14.22 -1.34,8.1 -0.94,16.39 -0.11,24.52 0.66,11.22 4.6,22.3 11.26,31.37 15.69,18.87 42.35,27.73 66.24,22.3 11.17,-2.29 21.2,-8.08 30.87,-13.88 1.47,0.83 2.96,1.68 4.49,2.46 -0.78,-0.18 -2.36,-0.52 -3.15,-0.69 -9.6,6.2 -19.66,12.23 -30.96,14.65 -15.63,3.19 -32.37,1.51 -46.75,-5.57 -9.91,-4.74 -19.21,-11.56 -24.95,-21.1 -6.56,-9.19 -8.83,-20.52 -10.26,-31.49 -1.26,-13.04 0.69,-26.18 4.44,-38.67 4.02,-10.89 11.54,-20.3 21.12,-26.82 z"
         id="path58" /></g><g
       id="#5acff0ff"><path
         fill="#5acff0"
         opacity="1"
         d="m 1061.52,360.71 c 12.38,-5.23 26.26,-6.41 39.51,-4.54 14.65,2.27 28.61,11.89 34.05,25.97 2.9,6.85 2.56,14.38 2.79,21.65 -1.91,-0.21 -3.83,-0.43 -5.71,-0.65 l -0.84,-0.1 c 0.25,-9.27 -2.05,-18.92 -8.4,-25.93 -6.74,-8.37 -17.58,-12.16 -28.01,-12.75 -10.73,-0.84 -22.36,-1 -31.94,4.63 -7.06,4.07 -11.06,11.67 -13.57,19.15 0.11,-3.72 -2.58,-6.23 -5.63,-7.79 2.09,-4.74 3.39,-9.89 6.22,-14.26 3.86,-1.74 7.76,-3.42 11.53,-5.38 z"
         id="path59" /></g><g
       id="#55cdf1ff"><path
         fill="#55cdf1"
         opacity="1"
         d="m 1360.08,382.07 c 9.94,-16.64 29.64,-26.71 48.92,-25.71 18.97,0.14 37.95,11.38 45.76,28.92 3.82,7.9 4.65,16.83 4.63,25.49 -2.29,-0.36 -4.6,-0.69 -6.87,-1.02 -0.3,-15.17 -8.66,-29.62 -20.87,-38.4 -10.84,-7.38 -24.86,-8.89 -37.44,-6.01 -15.98,4.39 -28.75,18.44 -32.09,34.61 -0.45,2.03 -0.88,4.06 -1.25,6.1 -0.96,4.54 -0.48,9.21 -1.07,13.8 -1.89,-0.18 -3.75,-0.35 -5.61,-0.52 0.2,-7.48 -0.47,-14.96 0.26,-22.42 0.33,-5.39 2.92,-10.28 5.63,-14.84 z"
         id="path60" /></g><g
       id="#3ca3c9ff"><path
         fill="#3ca3c9"
         opacity="1"
         d="m 996.43,359.47 c 1.57,-0.91 3.15,-1.83 4.75,-2.72 1.58,1.83 1.81,3.97 0.27,5.9 3.59,-1.45 6.74,0.65 9.06,3.28 l -0.93,0.51 c -4.46,2.48 -8.99,4.85 -13.45,7.33 -1.27,0.71 -2.54,1.43 -3.8,2.14 -0.24,0.13 -0.72,0.39 -0.96,0.52 -4.41,2.21 -8.75,4.55 -12.97,7.1 -0.71,0.28 -2.14,0.83 -2.85,1.11 -0.37,-0.87 -0.72,-1.72 -1.07,-2.58 -1.36,-3.02 -2.67,-6.08 -3.36,-9.33 7.1,-4.01 14.5,-7.45 21.68,-11.31 1.2,-0.65 2.43,-1.28 3.63,-1.95 z"
         id="path61" /></g><g
       id="#fefeffff"><path
         fill="#fefeff"
         opacity="1"
         d="m 1195.72,397.24 c 6.03,-20.14 26.25,-34.91 47.22,-34.9 6.47,-0.02 13.08,-0.41 19.39,1.4 5.68,1.26 10.85,4.09 15.65,7.32 2.17,1.78 5.9,0.67 7.35,3.46 0.62,2.38 1.11,5.9 -1.4,7.36 -2.49,1.51 -5.62,0.5 -7.59,-1.39 -0.1,-2.52 -0.04,-5.05 0.22,-7.56 -3.51,-2.1 -6.96,-4.37 -10.82,-5.75 -8.03,-2.7 -16.63,-3.05 -25,-2.38 -8.13,1.09 -16.36,3.11 -23.21,7.82 -8.98,5.9 -15.68,14.97 -19.46,24.97 -1.08,3.29 -2.07,6.66 -2.35,10.14 -1.25,14.02 -0.65,28.56 4.79,41.73 7.89,19.65 29.99,30.79 50.48,30.11 12.31,0.26 24.23,-4.82 33.42,-12.85 0.69,-2.44 0.7,-5.56 2.99,-7.14 2.37,-0.41 4.89,0.06 6.36,2.15 -0.05,1.53 -0.07,3.07 -0.06,4.61 -2.33,1.19 -4.99,1.26 -7.47,1.9 -8.15,7.17 -18.35,12.24 -29.19,13.54 -7.38,1.4 -14.88,0.03 -22.09,-1.63 -9.69,-2.34 -18.75,-7.24 -26.01,-14.06 -9.65,-9.47 -14.4,-22.87 -15.67,-36.11 -0.92,-6.36 -0.89,-12.8 -0.4,-19.19 0.88,-4.53 1.38,-9.15 2.85,-13.55 z"
         id="path62" /></g><g
       id="#ececedff"><path
         fill="#ececed"
         opacity="1"
         d="m 734.81,382.9 c 2.67,-6.67 4.52,-13.66 7.49,-20.21 -0.13,3.58 -1.96,6.8 -2.34,10.32 0.13,4 0.94,7.95 0.93,11.96 -2.16,-0.28 -4.31,-0.62 -6.44,-1.01 z"
         id="path63" /></g><g
       id="#eaf9fdff"><path
         fill="#eaf9fd"
         opacity="1"
         d="m 1062.97,368.99 c 9.58,-5.63 21.21,-5.47 31.94,-4.63 10.43,0.59 21.27,4.38 28.01,12.75 6.35,7.01 8.65,16.66 8.4,25.93 -0.3,18.97 0.01,37.96 0.06,56.94 0.05,2.02 -0.2,4.22 0.88,6.04 1.57,1.8 3.21,3.54 4.81,5.33 -0.42,0.49 -1.25,1.48 -1.67,1.97 -2.7,-3.06 -7.07,-5.79 -6.87,-10.35 -0.05,-14.03 0.01,-28.07 -0.04,-42.1 -0.01,-6.47 0.22,-12.96 -0.47,-19.4 -0.39,-4.85 0.22,-9.95 -2.02,-14.45 -3.02,-7.76 -9.67,-13.69 -17.27,-16.81 -9.21,-4.01 -19.5,-4.22 -29.35,-3.51 -7.06,0.9 -14.34,3.09 -19.63,8.07 -3.62,3.38 -5.08,8.25 -6.82,12.73 -5.25,11.19 -9.37,22.86 -14.3,34.18 -4.55,10.74 -9.07,21.5 -13.45,32.31 -4.9,11.49 -9.95,22.92 -14.67,34.48 -5.63,13.46 -13.13,26.25 -23.03,37.02 -6.65,7 -15.65,12.28 -25.53,12.33 -8.67,1.41 -17.76,-1.82 -26.12,1.61 -0.59,0.11 -1.76,0.34 -2.35,0.45 -0.05,-2.2 -0.08,-4.4 -0.1,-6.59 2.36,-0.43 4.52,0.49 6.58,1.53 4.29,0.86 8.71,0.42 13.06,0.59 7.89,0.2 16.33,0.28 23.25,-4.1 8.67,-5.51 14.78,-14.07 20.69,-22.29 5.6,-7.73 8.7,-16.81 12.66,-25.41 3.99,-9.62 8.2,-19.15 12.15,-28.79 3.97,-9.42 8.18,-18.75 11.88,-28.28 5.18,-12.83 10.77,-25.49 15.75,-38.4 2.51,-7.48 6.51,-15.08 13.57,-19.15 z"
         id="path64" /></g><g
       id="#eef9fcff"><path
         fill="#eef9fc"
         opacity="1"
         d="m 1394.21,365.34 c 12.58,-2.88 26.6,-1.37 37.44,6.01 12.21,8.78 20.57,23.23 20.87,38.4 0.12,11.39 0.21,22.78 0.2,34.18 -0.05,6.6 0.37,13.23 -0.12,19.82 0.01,1.57 -2.07,1.72 -2.99,2.48 0.54,-6.68 1.01,-13.37 0.83,-20.09 0,-7.72 -0.23,-15.44 -0.2,-23.15 -0.01,-5.13 0.31,-10.27 -0.41,-15.36 -1.81,-17.76 -14.1,-35.15 -31.92,-39.61 -15.74,-4.61 -34,0.82 -44.15,13.81 -6.19,8.01 -10.62,17.89 -10.38,28.17 -0.03,2.94 0.03,5.89 0.04,8.84 0.08,18.91 -0.14,37.82 0.06,56.72 2.07,1.14 4.81,2.54 4.35,5.4 0.99,5.53 -8.15,6.84 -9.39,1.76 -1.18,-3.05 0.81,-5.65 3.03,-7.49 -1.08,-10.26 -0.77,-20.57 -0.77,-30.86 0.17,-12.77 -0.46,-25.56 0.17,-38.32 0.37,-2.04 0.8,-4.07 1.25,-6.1 3.34,-16.17 16.11,-30.22 32.09,-34.61 z"
         id="path65" /></g><g
       id="#48bee5ff"><path
         fill="#48bee5"
         opacity="1"
         d="m 1028.92,365.52 c 3.63,2.17 5.8,5.92 8.99,8.6 1.53,1.25 2.73,2.84 3.5,4.68 -3.75,8.33 -6.68,16.99 -10.39,25.34 -3.62,8.25 -6.4,16.83 -10.14,25.03 -3.96,-3.79 -7.65,-7.98 -12.44,-10.77 0.73,-1.97 1.42,-3.96 2.08,-5.95 4.2,-8.89 7.23,-18.26 10.95,-27.34 2.49,-6.53 5.04,-13.03 7.45,-19.59 z"
         id="path66" /></g><g
       id="#59d2f4ff"><path
         fill="#59d2f4"
         opacity="1"
         d="m 1079.38,366.7 c 9.85,-0.71 20.14,-0.5 29.35,3.51 7.6,3.12 14.25,9.05 17.27,16.81 2.24,4.5 1.63,9.6 2.02,14.45 -1.81,0.21 -3.61,0.42 -5.39,0.64 0.17,-6.85 -1.2,-13.92 -5.19,-19.61 -3.03,-4.34 -7.52,-8.61 -13.19,-8.32 0.11,0.48 0.33,1.45 0.44,1.93 7.09,2.86 13.08,8.94 14.54,16.61 -0.14,2.81 -0.36,5.62 -0.48,8.44 -4.5,0.23 -8.78,-1.47 -13.25,-1.58 -1.79,-6.37 -5.61,-12.69 -11.97,-15.29 -5.53,-2.65 -11.91,-2.36 -17.82,-1.53 -6.54,1.31 -10.77,6.95 -13.13,12.8 -3.55,-2.27 -6.82,-4.95 -9.65,-8.06 1.74,-4.48 3.2,-9.35 6.82,-12.73 5.29,-4.98 12.57,-7.17 19.63,-8.07 z"
         id="path67" /></g><g
       id="#47bedfff"><path
         fill="#47bedf"
         opacity="1"
         d="m 337.2,370.47 c 0.42,-0.31 1.27,-0.92 1.7,-1.23 -3.78,5 -6.95,10.4 -10,15.87 -0.46,0.65 -0.93,1.3 -1.42,1.94 -0.27,-5.33 -6.35,-8.29 -11.07,-6.74 5.07,-2.86 9.67,-6.51 14.86,-9.16 1.81,-1.02 3.94,-0.67 5.93,-0.68 z"
         id="path68" /></g><g
       id="#54c9edff"><path
         fill="#54c9ed"
         opacity="1"
         d="m 827.27,376.05 c 0.44,-2.18 1.48,-4.2 3.79,-4.88 14.63,3.78 29.51,6.53 44.13,10.33 0.98,0.27 1.97,0.53 2.97,0.8 -1.3,0.88 -4.1,1.27 -3.43,3.44 0.43,1.55 0.35,3.11 -0.74,4.37 -4.23,-2.97 -8.97,0.04 -12.7,2.32 0.88,0.7 1.79,1.39 2.71,2.07 -14.41,-2.65 -28.93,-4.78 -43.2,-8.09 0.04,-0.71 0.12,-2.13 0.17,-2.84 2.28,0.01 5.27,0.56 6.5,-1.97 1.77,-1.56 0.3,-3.76 -0.2,-5.55 z"
         id="path69" /></g><g
       id="#ededecff-4" /><g
       id="#a1aaafff"><path
         fill="#a1aaaf"
         opacity="1"
         d="m 992.33,375.91 c 1.26,-0.71 2.53,-1.43 3.8,-2.14 0.26,4.36 0.15,8.72 0,13.08 0.13,2.99 0.2,5.99 -0.22,8.96 -0.54,-0.11 -1.63,-0.33 -2.18,-0.44 -1.89,-6.3 -1.02,-12.98 -1.4,-19.46 z"
         id="path70" /></g><g
       id="#f7fcfeff"><path
         fill="#f7fcfe"
         opacity="1"
         d="m 1104.25,374.18 c 5.67,-0.29 10.16,3.98 13.19,8.32 3.99,5.69 5.36,12.76 5.19,19.61 0.09,6 0.06,12.01 0.02,18.02 0.08,18.6 -0.15,37.21 0.12,55.81 1.53,1.29 3.45,2.7 3.02,5.02 0.81,4.82 -6.69,6.79 -8.97,2.95 -1.27,-1.77 -0.39,-4.07 -0.32,-6.05 1.09,-0.63 2.17,-1.32 3.24,-2.02 1.1,-11.93 -0.01,-23.93 0.47,-35.87 0.01,-7.49 -0.01,-14.97 -0.03,-22.45 -0.01,-8.27 -0.27,-16.57 -0.95,-24.8 -1.46,-7.67 -7.45,-13.75 -14.54,-16.61 -0.11,-0.48 -0.33,-1.45 -0.44,-1.93 z"
         id="path71" /></g><g
       id="#ebebedff" /><g
       id="#3bb5dcff"><path
         fill="#3bb5dc"
         opacity="1"
         d="m 316.41,380.31 c 4.72,-1.55 10.8,1.41 11.07,6.74 -9.61,8.27 -21.87,12.33 -32.41,19.16 -9.38,5.35 -18.57,11.03 -28.07,16.17 -3.14,1.64 -6.22,3.39 -9.44,4.88 0.02,-4.42 -0.2,-8.88 0.4,-13.27 0.22,-1.29 1.52,-1.91 2.47,-2.61 13.62,-8.43 27.6,-16.24 41.66,-23.91 1.09,-0.54 2.19,-1.08 3.29,-1.61 1.38,-0.73 2.71,-1.53 4.06,-2.32 0.23,-0.52 0.69,-1.56 0.92,-2.08 2.03,-0.28 4.05,-0.64 6.05,-1.15 z"
         id="path72" /></g><g
       id="#fafdffff" /><g
       id="#4cbfe5ff"><path
         fill="#4cbfe5"
         opacity="1"
         d="m 1043.77,380.35 c 3.05,1.56 5.74,4.07 5.63,7.79 -4.98,12.91 -10.57,25.57 -15.75,38.4 -2.87,-0.81 -5.83,-1.89 -6.96,-4.92 5.88,-13.67 10.94,-27.7 17.08,-41.27 z"
         id="path73" /></g><g
       id="#47bee3ff"><path
         fill="#47bee3"
         opacity="1"
         d="m 974.48,382.06 c 0.35,0.86 0.7,1.71 1.07,2.58 4.06,10.36 8.89,20.39 12.7,30.86 -2.38,1.9 -3.23,4.64 -2.69,7.6 -1.76,-0.71 -2.5,-2.57 -3.77,-3.82 -2.28,-0.72 -5.11,-1.37 -6.9,0.69 -4.64,-9.24 -9.36,-18.44 -13.58,-27.88 0.17,-0.29 0.52,-0.87 0.7,-1.17 5.41,0.38 11.14,-3.45 12.47,-8.86 z"
         id="path74" /></g><g
       id="#c5eaf4ff"><path
         fill="#c5eaf4"
         opacity="1"
         d="m 1407.83,381.53 c 3.08,0.31 6.12,1.21 8.79,2.85 -2.61,0.17 -5.21,0.16 -7.8,0.02 -0.25,-0.72 -0.74,-2.15 -0.99,-2.87 z"
         id="path75" /></g><g
       id="#47b9dfff"><path
         fill="#47b9df"
         opacity="1"
         d="m 874.73,385.74 c -0.67,-2.17 2.13,-2.56 3.43,-3.44 3.52,0.95 6.98,2.13 10.48,3.21 9.47,3.67 18.19,9.24 24.98,16.86 -4.78,2.55 -9.64,4.94 -14.28,7.75 -8.89,-10.19 -22.63,-13.28 -35.34,-15.62 -0.92,-0.68 -1.83,-1.37 -2.71,-2.07 3.73,-2.28 8.47,-5.29 12.7,-2.32 1.09,-1.26 1.17,-2.82 0.74,-4.37 z"
         id="path76" /></g><g
       id="#eeefefff-5" /><g
       id="#45bce2ff"><path
         fill="#45bce2"
         opacity="1"
         d="m 1174.64,382.41 c 5.14,1.21 7.92,6.36 12.87,8.08 -3.75,12.49 -5.7,25.63 -4.44,38.67 -3.17,-0.27 -6.62,-0.03 -9.36,-1.88 -2.44,-1.5 -3.9,-4.02 -5.51,-6.28 -0.27,2.04 -0.53,4.08 -0.62,6.14 -0.85,-14.13 -0.29,-28.88 5.79,-41.92 0.4,-0.95 0.82,-1.89 1.27,-2.81 z"
         id="path77" /></g><g
       id="#f1f1f1ff-5" /><g
       id="#aab0b0ff"><path
         fill="#aab0b0"
         opacity="1"
         d="m 747.01,387.04 c 1.86,-1.24 4.44,-1.99 6.44,-0.57 2.72,1.19 2.01,4.59 2.11,7 -0.17,0.55 -0.53,1.63 -0.7,2.18 -3.09,-0.23 -7.06,0.77 -9.22,-2.09 -0.44,-2.16 -1.03,-5.31 1.37,-6.52 z"
         id="path78" /></g><g
       id="#54c6e9ff"><path
         fill="#54c6e9"
         opacity="1"
         d="m 803.99,386.38 c 0.7,0.51 1.41,1.02 2.13,1.54 0.72,-0.8 1.46,-1.6 2.2,-2.39 10.63,3.94 21.88,5.61 32.96,7.74 -2.76,0.57 -5.28,1.87 -6.76,4.34 -11.29,-1.59 -22.68,-3.59 -33.17,-8.24 0.86,-1.01 1.76,-2 2.64,-2.99 z"
         id="path79" /></g><g
       id="#adb5b8ff"><path
         fill="#adb5b8"
         opacity="1"
         d="m 1242.88,388.84 c 2.09,-2.33 5.45,-1.71 8.17,-1.1 0.81,2.73 2.86,4.7 5.52,5.7 -1.6,-0.02 -3.18,-0.02 -4.74,0.02 1.48,0.37 2.98,0.73 4.51,1.04 -0.85,0.06 -2.55,0.18 -3.39,0.24 -1.63,2.07 -4.11,4.21 -6.94,3.2 -3.88,-0.85 -5.67,-6.04 -3.13,-9.1 z"
         id="path80" /></g><g
       id="#46bee4ff"><path
         fill="#46bee4"
         opacity="1"
         d="m 1038.63,421.68 c 4.93,-11.32 9.05,-22.99 14.3,-34.18 2.83,3.11 6.1,5.79 9.65,8.06 -4.06,9.15 -8.25,18.24 -11.95,27.55 -0.23,-0.7 -0.69,-2.1 -0.92,-2.8 -3.64,0.81 -7.33,1.47 -11.08,1.37 z"
         id="path81" /></g><g
       id="#4bbfe2ff"><path
         fill="#4bbfe2"
         opacity="1"
         d="m 953.86,391.49 c 2.2,-0.5 3.9,1.03 5.44,2.38 3.45,7.85 7.51,15.41 11.1,23.18 -0.61,0.24 -1.84,0.72 -2.45,0.96 -2.88,0.25 -4.6,2.82 -4.25,5.6 -0.51,-1.06 -0.97,-2.15 -1.41,-3.22 -0.76,0 -2.26,0 -3.01,0 -2.8,-6.86 -5.48,-13.76 -8.73,-20.41 1.16,-2.81 2.74,-5.47 3.31,-8.49 z"
         id="path82" /></g><g
       id="#4ec0e3ff"><path
         fill="#4ec0e3"
         opacity="1"
         d="m 1119.23,392.72 c 0.68,8.23 0.94,16.53 0.95,24.8 -2.75,0.39 -5.09,1.86 -7.56,2.98 -2.01,0.33 -4.05,0.17 -6.07,0.18 -0.08,-5.7 0.43,-11.45 -0.59,-17.09 -0.15,-1.34 -0.3,-2.68 -0.46,-4.01 4.47,0.11 8.75,1.81 13.25,1.58 0.12,-2.82 0.34,-5.63 0.48,-8.44 z"
         id="path83" /></g><g
       id="#40b7dfff"><path
         fill="#40b7df"
         opacity="1"
         d="m 1186.39,406.59 c 0.41,-4.86 1.62,-9.63 3.27,-14.22 2.42,1.07 4.35,2.88 6.06,4.87 -1.47,4.4 -1.97,9.02 -2.85,13.55 -1.29,2.66 -2.5,5.36 -3.54,8.12 -2.84,-3.49 -2.05,-8.18 -2.94,-12.32 z"
         id="path84" /></g><g
       id="#8c9398ff"><path
         fill="#8c9398"
         opacity="1"
         d="m 755.56,393.47 c 10.92,9.45 22.05,18.7 33.95,26.9 5.65,3.91 12.67,4.45 19.23,5.67 3.73,1.08 8.61,-0.08 11.39,3.14 -4.04,1.19 -8.18,-0.11 -12.18,-0.76 -6.56,-1.43 -13.66,-2.07 -19.25,-6.16 -11.94,-7.99 -23.07,-17.13 -33.84,-26.61 0.17,-0.55 0.53,-1.63 0.7,-2.18 z"
         id="path85" /></g><g
       id="#47b5dcff"><path
         fill="#47b5dc"
         opacity="1"
         d="m 834.52,397.61 c 1.48,-2.47 4,-3.77 6.76,-4.34 11.14,1.9 22.38,3.33 33.34,6.15 5.56,1.38 11,3.42 15.84,6.52 -0.58,0.14 -1.75,0.42 -2.34,0.56 -1.68,-0.89 -3.53,-1.22 -5.39,-0.95 -0.14,0.93 -0.27,1.87 -0.39,2.81 -7,-3.64 -14.94,-4.53 -22.56,-6.1 -8.44,-1.46 -16.85,-3.07 -25.26,-4.65 z"
         id="path86" /></g><g
       id="#4fc5e8ff"><path
         fill="#4fc5e8"
         opacity="1"
         d="m 776.5,395.19 c 2.39,0.68 4.91,1.53 7.39,0.68 3.35,-1.18 6.45,1.04 9.5,2.13 0.21,1.84 -0.52,4.13 0.96,5.6 1.08,1.51 2.96,1.8 4.65,2.18 -0.45,1.17 -0.89,2.35 -1.32,3.53 -7.71,-2.74 -14.85,-6.98 -21.27,-12.01 0.02,-0.53 0.07,-1.58 0.09,-2.11 z"
         id="path87" /></g><g
       id="#51c2e6ff"><path
         fill="#51c2e6"
         opacity="1"
         d="m 802.22,396.87 c 3.57,-2.33 7.4,0.4 11.22,-0.38 6.22,1.42 12.49,2.65 18.79,3.72 -0.94,1.79 -1.88,3.58 -2.81,5.37 -8.6,-1.51 -17.07,-3.74 -25.71,-5.06 -0.61,-1.17 -1.12,-2.41 -1.49,-3.65 z"
         id="path88" /></g><g
       id="#3b9ec1ff"><path
         fill="#3b9ec1"
         opacity="1"
         d="m 929.23,394.84 c 0.49,-0.08 1.46,-0.23 1.95,-0.3 1.97,3.32 3.17,7.03 5.11,10.37 -1.2,0.56 -2.38,1.11 -3.54,1.71 -0.86,-3.92 -1.79,-8.21 -5.25,-10.71 0.43,-0.26 1.3,-0.8 1.73,-1.07 z"
         id="path89" /></g><g
       id="#41afd5ff"><path
         fill="#41afd5"
         opacity="1"
         d="m 913.62,402.37 c 4.46,-2.51 9.33,-4.14 13.88,-6.46 3.46,2.5 4.39,6.79 5.25,10.71 -4.18,2.36 -8.5,4.46 -12.69,6.78 3.44,10.91 4.73,22.62 2.66,33.93 -1.05,-5.08 -0.5,-10.27 -0.67,-15.41 0.15,-1.78 -0.98,-3.82 -2.84,-4.1 -3.28,-0.51 -6.6,-0.75 -9.85,-1.37 -0.33,1.24 -0.64,2.48 -0.9,3.75 -0.56,-2.65 -1,-5.33 -1.88,-7.88 -0.23,-1.77 -2.15,-0.76 -3.21,-0.79 1.09,2.93 1.94,5.95 2.47,9.04 -1.93,0.86 -3.82,1.74 -5.73,2.62 -1.01,-2.8 -0.86,-6.49 -3.53,-8.32 1.09,-1.2 3.37,-2.52 1.94,-4.36 -2.99,-2.17 -6.66,-3 -10.17,-3.91 -0.28,-0.5 -0.86,-1.51 -1.15,-2.01 1.2,0.04 2.4,-0.01 3.6,-0.18 -2.61,-2.3 -5.4,-4.39 -8.46,-6.05 0.12,-0.94 0.25,-1.88 0.39,-2.81 1.86,-0.27 3.71,0.06 5.39,0.95 0.59,-0.14 1.76,-0.42 2.34,-0.56 3.03,1.27 5.19,6.53 8.88,4.18 4.64,-2.81 9.5,-5.2 14.28,-7.75 z"
         id="path90" /></g><g
       id="#4dbfe4ff"><path
         fill="#4dbfe4"
         opacity="1"
         d="m 1198.07,397.59 c 2.24,0.57 4.42,1.38 6.47,2.5 -0.02,2.18 0.13,4.44 2.01,5.89 0.01,2.32 -0.2,4.64 -0.69,6.91 -0.48,1.93 -0.98,3.87 -1.42,5.81 -2.56,0.45 -5.08,1.02 -7.55,1.79 -0.8,-4.21 -0.7,-8.52 -1.17,-12.76 0.28,-3.48 1.27,-6.85 2.35,-10.14 z"
         id="path91" /></g><g
       id="#ecfafcff"><path
         fill="#ecfafc"
         opacity="1"
         d="m 803.71,400.52 c 8.64,1.32 17.11,3.55 25.71,5.06 12.27,2.7 24.59,5.26 37.01,7.23 3.35,1.58 6.85,2.85 10.22,4.41 0.08,0.46 0.25,1.38 0.34,1.84 -7.03,-1.78 -13.84,-4.4 -21.03,-5.51 -10.4,-1.65 -20.63,-4.27 -31.04,-5.88 -7.66,-1.28 -15.14,-3.46 -22.82,-4.61 0.55,-0.83 1.09,-1.68 1.61,-2.54 z"
         id="path92" /></g><g
       id="#43b5daff"><path
         fill="#43b5da"
         opacity="1"
         d="m 829.42,405.58 c 0.93,-1.79 1.87,-3.58 2.81,-5.37 12.18,1.82 24.31,3.98 36.39,6.41 5.15,1.16 10.29,2.69 14.9,5.35 -3.77,1.29 -7.45,-0.87 -11.17,-1.23 0.41,-0.53 0.84,-1.06 1.28,-1.59 -2.62,-0.69 -5.33,-1.24 -7.99,-0.49 0.27,1.38 0.52,2.76 0.79,4.15 -12.42,-1.97 -24.74,-4.53 -37.01,-7.23 z"
         id="path93" /></g><g
       id="#4abee3ff"><path
         fill="#4abee3"
         opacity="1"
         d="m 1329.39,401.14 c 5.31,0.47 9.82,4.2 13.51,7.8 0.57,5.51 0.32,11.06 0.35,16.6 -1.77,-0.66 -3.35,-1.66 -4.7,-2.95 -1.18,0.77 -2.36,1.56 -3.51,2.37 -0.93,-1.32 -1.89,-2.62 -2.84,-3.9 -1.14,1.19 -2.28,2.37 -3.33,3.63 0,-7.85 0,-15.71 0.52,-23.55 z"
         id="path94" /></g><g
       id="#4eb9e0ff"><path
         fill="#4eb9e0"
         opacity="1"
         d="m 1122.63,402.11 c 1.78,-0.22 3.58,-0.43 5.39,-0.64 0.69,6.44 0.46,12.93 0.47,19.4 -1.95,-0.25 -3.9,-0.5 -5.84,-0.74 0.04,-6.01 0.07,-12.02 -0.02,-18.02 z"
         id="path95" /></g><g
       id="#44b4d7ff"><path
         fill="#44b4d7"
         opacity="1"
         d="m 802.1,403.06 c 7.68,1.15 15.16,3.33 22.82,4.61 10.41,1.61 20.64,4.23 31.04,5.88 7.19,1.11 14,3.73 21.03,5.51 -1.9,1.83 -4.51,2.18 -6.95,2.79 -1.52,0.86 -2.89,1.97 -4.32,2.96 -0.43,0.77 -0.87,1.55 -1.3,2.33 -0.29,0.1 -0.85,0.3 -1.14,0.4 0.18,-0.63 0.37,-1.26 0.57,-1.88 -16.97,-6.32 -35.24,-7.49 -52.62,-12.27 -4.55,-1.27 -9.11,-2.49 -13.55,-4.08 0.43,-1.18 0.87,-2.36 1.32,-3.53 1.03,-0.9 2.09,-1.78 3.1,-2.72 z"
         id="path96" /></g><g
       id="#58afd0ff"><path
         fill="#58afd0"
         opacity="1"
         d="m 1131.32,403.04 0.84,0.1 c -0.74,7.16 -0.48,14.37 -0.01,21.54 0.54,9.11 -1.65,18.61 1.65,27.37 0.32,1.48 0.42,3.01 0.59,4.53 0.33,-0.06 1.01,-0.16 1.34,-0.21 -0.08,1.24 -0.14,2.5 -0.19,3.76 0.76,0.9 1.55,1.82 2.38,2.71 -2.51,-0.24 -4.5,1.02 -5.66,3.18 -1.08,-1.82 -0.83,-4.02 -0.88,-6.04 -0.05,-18.98 -0.36,-37.97 -0.06,-56.94 z"
         id="path97" /></g><g
       id="#4ebadfff"><path
         fill="#4ebadf"
         opacity="1"
         d="m 1132.16,403.14 c 1.88,0.22 3.8,0.44 5.71,0.65 0.87,7.73 0.23,15.51 0.47,23.27 -0.82,-1 -1.57,-2.02 -2.48,-2.88 -1.26,0.07 -2.49,0.3 -3.71,0.5 -0.47,-7.17 -0.73,-14.38 0.01,-21.54 z"
         id="path98" /></g><g
       id="#45b3dbff"><path
         fill="#45b3db"
         opacity="1"
         d="m 1429.06,402.92 c 0.48,2.25 0.81,4.53 1.15,6.81 1.97,0.34 3.98,0.59 5.94,1.13 1.9,0.19 1.92,2.46 2.76,3.79 0.9,1.29 2.16,2.27 3.35,3.31 -0.92,6.33 -0.41,12.72 -0.62,19.09 -0.06,2.79 -1.53,5.25 -2.9,7.6 -2.86,0.12 -5.71,0.3 -8.55,0.49 -1,8.6 -0.19,17.26 -0.37,25.89 -0.21,8.61 0.28,17.21 0.26,25.82 l -0.64,-0.25 c -0.32,-19.87 -0.25,-39.75 0,-59.62 -0.06,-11.35 0.43,-22.73 -0.38,-34.06 z"
         id="path99" /></g><g
       id="#42bae1ff"><path
         fill="#42bae1"
         opacity="1"
         d="m 1141.72,406.31 c 4.56,0.87 8.99,-0.56 13.2,-2.18 0.34,4.32 0.37,8.66 0.48,13 0.39,4.29 -4.51,5.37 -5.37,9.2 -2.34,-1.63 -5.11,-1.3 -7.74,-1.54 -1.49,-6.02 -0.58,-12.35 -0.57,-18.48 z"
         id="path100" /></g><g
       id="#4fbde0ff"><path
         fill="#4fbde0"
         opacity="1"
         d="m 937.04,405.83 c 1.83,1.43 3.59,2.95 5.22,4.62 3.12,-0.56 5.76,-2.37 8.03,-4.51 1.77,4.63 4.05,9.05 5.93,13.64 -1.18,0.22 -2.34,0.45 -3.49,0.69 -0.09,0.96 -0.18,1.93 -0.26,2.9 -0.69,-0.95 -1.34,-1.92 -1.93,-2.9 0.08,1.51 -1.46,0.78 -2.26,1.03 -1.47,0.01 -2.86,0.53 -4.19,1.04 -0.12,0.12 -0.36,0.37 -0.48,0.49 -1.33,-5.95 -4.88,-11.13 -6.57,-17 z"
         id="path101" /></g><g
       id="#3da5cbff"><path
         fill="#3da5cb"
         opacity="1"
         d="m 1140.67,406.22 1.05,0.09 c -0.01,6.13 -0.92,12.46 0.57,18.48 2.63,0.24 5.4,-0.09 7.74,1.54 0.86,-3.83 5.76,-4.91 5.37,-9.2 l 0.96,-0.4 c -0.06,26.6 -0.15,53.19 0.05,79.78 -1.44,0.43 -2.92,0.71 -4.4,0.49 -5.84,-0.68 -11.67,0.59 -17.52,0.22 -1.07,-0.02 -2.13,-0.02 -3.17,-0.02 -8.22,0.03 -16.43,0.04 -24.63,-0.04 -0.21,-6.33 -0.12,-12.65 -0.16,-18.98 2.33,-0.65 4.68,-1.29 7.04,-1.93 0.63,0.7 1.28,1.41 1.95,2.13 0.24,-0.13 0.73,-0.39 0.98,-0.52 -0.07,1.98 -0.95,4.28 0.32,6.05 2.28,3.84 9.78,1.87 8.97,-2.95 0.43,-2.32 -1.49,-3.73 -3.02,-5.02 -0.27,-18.6 -0.04,-37.21 -0.12,-55.81 1.94,0.24 3.89,0.49 5.84,0.74 0.05,14.03 -0.01,28.07 0.04,42.1 -0.2,4.56 4.17,7.29 6.87,10.35 0.03,1.48 0.19,2.98 0.02,4.47 -1.18,1.64 -3.55,2.83 -3.13,5.2 -0.19,1.83 1.14,3.2 2.09,4.61 1.68,-0.04 3.38,-0.06 5.09,-0.06 1.94,-1.84 2.97,-4.52 1.92,-7.13 -1.02,-1.21 -2.35,-2.07 -3.55,-3.04 -0.13,-2.02 0.03,-4.12 -0.77,-6.02 -1.6,-1.79 -3.24,-3.53 -4.81,-5.33 1.16,-2.16 3.15,-3.42 5.66,-3.18 3.22,1.81 7.53,-1.21 6.83,-4.87 0.19,-2.48 -2.45,-3.49 -4,-4.84 -0.12,-15.64 -0.04,-31.28 -0.08,-46.91 z"
         id="path102" /></g><g
       id="#4eb0d5ff"><path
         fill="#4eb0d5"
         opacity="1"
         d="m 1359.8,419.85 c 0.59,-4.59 0.11,-9.26 1.07,-13.8 -0.63,12.76 0,25.55 -0.17,38.32 -1.24,0.08 -2.64,0.6 -3.69,-0.29 -0.74,-1.27 -1.25,-2.64 -1.79,-3.97 -0.86,5.93 0.45,12.08 -1.02,17.9 0.03,-12.89 0.04,-25.79 -0.01,-38.68 1.86,0.17 3.72,0.34 5.61,0.52 z"
         id="path103" /></g><g
       id="#9ea9aeff"><path
         fill="#9ea9ae"
         opacity="1"
         d="m 1390.19,406.67 c 1.51,-0.73 3.09,-1.84 4.87,-1.11 3.45,2.54 0.63,7.04 0.66,10.45 -0.17,41.68 0.11,83.38 0.03,125.07 0.07,1.17 0.36,2.31 0.85,3.41 7.11,-0.3 14.24,0.01 21.35,-0.27 5.5,-0.72 11.05,-0.57 16.6,-0.63 0.2,-8.21 0.09,-16.43 0.13,-24.65 0.37,-3.99 -3.43,-6.35 -5.88,-8.85 -5.77,-5.16 -11.2,-10.76 -16.25,-16.59 -0.9,-6.79 0.13,-13.69 -0.4,-20.51 -0.73,-7.54 -0.16,-15.12 -0.47,-22.67 -1.14,-0.91 -2.28,-1.8 -3.36,-2.74 -4.29,-3.54 -3.11,-10.42 1.48,-13.12 2.18,-0.8 4.73,-1.49 6.9,-0.17 4.85,2.05 6.51,9.4 2.54,13.04 -1.56,1.69 -4.34,2.91 -3.71,5.67 -0.01,13.04 -0.08,26.09 0.04,39.13 6.36,7 13.45,13.28 19.99,20.12 0.83,1.16 2.1,2.29 2.13,3.85 0.23,7.96 -0.4,15.97 0.5,23.91 0.34,2.51 -0.14,5.01 -0.94,7.38 -14.46,0.27 -28.93,0 -43.39,-0.1 -0.32,-0.26 -0.95,-0.79 -1.26,-1.05 -0.28,-43.42 -0.01,-86.84 -0.31,-130.25 -0.21,-3.24 -2.62,-5.96 -2.1,-9.32 m 21.09,30.73 c -3.54,1.98 -2.6,8.58 1.68,8.98 3.36,0.91 6.74,-3.25 4.93,-6.35 -0.93,-2.76 -4.15,-3.21 -6.61,-2.63 z"
         id="path104" /><path
         fill="#9ea9ae"
         opacity="1"
         d="m 1099.06,485.22 c 0.69,-0.01 2.08,-0.02 2.78,-0.03 1.05,8.73 -0.1,17.57 0.59,26.33 0.19,0.12 0.57,0.35 0.76,0.47 2.95,1.56 5.66,4.46 5.38,8.04 0.11,4.01 -3.47,7.87 -7.57,7.62 -4.81,0.69 -8.81,-4.13 -8.45,-8.69 0.03,-1.93 1.41,-3.42 2.32,-5 1.22,-0.78 2.48,-1.52 3.73,-2.26 0.4,-8.82 -0.74,-17.72 0.46,-26.48 m -0.61,30.36 c -4.16,2.28 -2.23,9.19 2.58,8.75 3.7,0.13 4.52,-4.25 3.47,-7.02 -1.31,-1.91 -3.97,-2.54 -6.05,-1.73 z"
         id="path105" /></g><g
       id="#56bbdcff"><path
         fill="#56bbdc"
         opacity="1"
         d="m 1186.39,406.59 c 0.89,4.14 0.1,8.83 2.94,12.32 1.04,-2.76 2.25,-5.46 3.54,-8.12 -0.49,6.39 -0.52,12.83 0.4,19.19 -1.19,-0.79 -2.36,-1.57 -3.51,-2.36 -1.64,0.62 -3,1.71 -3.48,3.49 -0.83,-8.13 -1.23,-16.42 0.11,-24.52 z"
         id="path106" /></g><g
       id="#41aed5ff"><path
         fill="#41aed5"
         opacity="1"
         d="m 1207.81,422.98 c 0.59,-5.36 0.72,-10.76 0.9,-16.15 0.42,3.33 0.63,6.7 0.57,10.07 1.74,0.33 3.5,0.59 5.28,0.75 0.51,2.92 1.07,5.84 1.69,8.75 0.24,8.05 2.72,16.23 7.86,22.52 1.92,2.18 3.96,4.28 6.2,6.15 -0.39,0.47 -1.16,1.42 -1.55,1.9 1.41,2.27 -0.69,3.21 -2.47,4.01 0.04,0.82 0.11,1.64 0.2,2.47 -2.44,-1.65 -6.14,-2.95 -5.95,-6.5 0.04,-3.68 -4.31,-3.8 -6.96,-4.23 -4.79,-9.13 -5.95,-19.57 -5.77,-29.74 z"
         id="path107" /></g><g
       id="#3da8cdff"><path
         fill="#3da8cd"
         opacity="1"
         d="m 865.64,408.66 c 2.66,-0.75 5.37,-0.2 7.99,0.49 -0.44,0.53 -0.87,1.06 -1.28,1.59 3.72,0.36 7.4,2.52 11.17,1.23 1.28,0.78 2.49,1.68 3.68,2.62 0.29,0.5 0.87,1.51 1.15,2.01 3.51,0.91 7.18,1.74 10.17,3.91 1.43,1.84 -0.85,3.16 -1.94,4.36 -0.91,2.44 0.42,4.86 0.78,7.27 2.13,8.99 -0.31,18.91 -6.4,25.87 -7.76,9.24 -20.03,13.04 -31.57,14.72 -0.88,-1.71 -0.57,-3.51 0.34,-5.11 3.81,0.14 7.64,-0.13 11.3,-1.27 -0.54,-1.97 -1.23,-3.89 -2.02,-5.77 -1.67,0 -3.34,0.03 -4.99,0.09 -0.53,3.64 -3.63,5.92 -7.11,6.37 -1.54,2.38 -3.59,4.34 -5.49,6.43 -13.35,0.61 -26.83,0.34 -40,-2.08 -3.93,-0.66 -7.7,-2.69 -11.76,-1.81 0.46,1.11 1.26,1.8 2.4,2.08 3.4,0.86 6.8,1.79 10.24,2.5 -2.2,1.83 -4.18,3.91 -5.84,6.25 -5.22,-1.64 -11.44,-1.72 -15.37,-5.94 -2.39,0.2 -4.53,1.37 -6.75,2.16 -0.14,1.69 -0.49,3.98 1.51,4.76 1.34,0.06 2.69,0.07 4.05,0.05 -0.59,1.25 -1.06,2.56 -1.53,3.86 -1.62,0 -3.3,-0.29 -4.83,0.33 -1.18,2.02 1.13,3.66 2.03,5.3 -0.58,-0.05 -1.74,-0.14 -2.32,-0.18 -4.7,-1.53 -9.27,-3.45 -13.57,-5.86 -1.07,-0.53 -2.17,-0.99 -3.23,-1.45 0.66,-0.54 1.33,-1.08 2.02,-1.61 -0.34,-0.89 -0.67,-1.77 -0.99,-2.64 1.29,0.07 2.6,0.13 3.92,0.18 -1.93,-1.47 -4.36,-1.8 -6.66,-2.22 2.89,-0.87 4.69,-3.2 5.79,-5.88 -2.6,-0.25 -5.19,-0.74 -7.79,-0.54 -2.03,0.69 -3.69,2.16 -5.44,3.34 2.85,-8.45 6.37,-16.65 9.52,-24.99 1.59,-3.98 2.78,-8.14 4.92,-11.87 7.76,2.75 13.98,8.49 21.49,11.82 4.78,1.7 9.76,5.74 14.99,4.11 3.11,-1.54 6.28,-2.93 9.41,-4.43 10.17,-4.32 20.04,-9.31 30.08,-13.92 5.24,-2.31 10.09,-5.5 15.57,-7.25 0.29,-0.1 0.85,-0.3 1.14,-0.4 0.43,-0.78 0.87,-1.56 1.3,-2.33 1.43,-0.99 2.8,-2.1 4.32,-2.96 2.44,-0.61 5.05,-0.96 6.95,-2.79 -0.09,-0.46 -0.26,-1.38 -0.34,-1.84 -3.37,-1.56 -6.87,-2.83 -10.22,-4.41 -0.27,-1.39 -0.52,-2.77 -0.79,-4.15 m 6.43,28.36 c -6.19,3.24 -12.53,6.19 -18.93,8.97 -6.56,3.22 -13.25,6.19 -19.86,9.29 -1.76,1.03 -4.71,0.94 -5.24,3.3 8.62,0.45 17.32,1.68 25.93,0.16 8.2,-0.43 17.15,-3.8 21.43,-11.24 1.83,-3.45 1.23,-7.48 1.11,-11.22 -1.54,-0.09 -3.11,-0.12 -4.44,0.74 m -96.01,18.25 c -3.89,1.61 -3.92,8.28 0.36,9.4 3.22,0.75 5.9,-2.11 9.22,-1.44 -0.36,-1.1 -1.1,-1.88 -2.21,-2.34 0.36,-3.68 -3.79,-7.71 -7.37,-5.62 z"
         id="path108" /></g><g
       id="#9fa8adff"><path
         fill="#9fa8ad"
         opacity="1"
         d="m 1069.95,411.04 c 0.91,-2.99 4.16,-3.66 6.92,-3.34 0.87,1.08 1.79,2.14 2.73,3.19 0.36,2.82 -1.16,5.14 -2.92,7.15 0.07,9.77 -0.04,19.53 0.56,29.28 -1.05,21.46 -0.19,42.96 -0.49,64.44 -0.07,8.09 0.07,16.18 -0.01,24.26 0.15,1.39 -0.41,3.26 1.02,4.19 2.57,1.93 5.51,4.24 5.7,7.75 0.34,3.81 -2.48,7.01 -5.83,8.39 -5.11,1.47 -11.07,-2.74 -10.35,-8.27 -0.56,-4.99 6.33,-6.33 6.06,-11.06 0.02,-12.83 0.32,-25.67 -0.04,-38.49 0.31,-16.62 0.03,-33.25 0.08,-49.87 0.01,-9.21 0.04,-18.42 0.01,-27.63 0.73,-3.95 -5.29,-5.96 -3.44,-9.99 m 1.66,134.83 c -0.79,2.37 -0.58,5.19 1.63,6.74 2.58,0.27 6.68,0 6.53,-3.55 1.49,-4.82 -5.87,-6.63 -8.16,-3.19 z"
         id="path109" /></g><g
       id="#4ab2d7ff"><path
         fill="#4ab2d7"
         opacity="1"
         d="m 1200.51,449.46 c -5.44,-13.17 -6.04,-27.71 -4.79,-41.73 0.47,4.24 0.37,8.55 1.17,12.76 2.47,-0.77 4.99,-1.34 7.55,-1.79 0.44,-1.94 0.94,-3.88 1.42,-5.81 -0.44,10.61 -0.99,21.47 1.82,31.84 -2.41,1.55 -4.8,3.12 -7.17,4.73 z"
         id="path110" /></g><g
       id="#fcfefeff"><path
         fill="#fcfefe"
         opacity="1"
         d="m 1438.91,414.65 c -0.76,-2.72 0.75,-5.61 3.23,-6.82 2.46,-1.15 4.34,1.46 6.28,2.55 -0.06,1.26 -0.07,2.52 -0.03,3.78 -0.85,0.96 -1.69,1.91 -2.51,2.87 -0.24,0.46 -0.73,1.39 -0.98,1.85 -0.81,6.71 0.95,13.43 0.06,20.14 -0.42,4.65 -0.31,9.33 0.08,13.99 0.55,7.34 0.15,14.7 -0.44,22.03 -1.28,1.85 -1.99,3.99 -2.52,6.15 1.42,1.11 3.26,2 3.94,3.82 1.47,3.41 -2.43,8 -6.01,6.05 -3.02,-0.92 -3.6,-4.69 -2.16,-7.14 1.09,-1.34 2.72,-2.05 4.17,-2.92 0.23,-1.34 0.46,-2.68 0.71,-4 -1.6,-0.82 -4.05,-1.1 -4.41,-3.2 -1.36,-3.72 4.76,-4.23 4.26,-7.75 -0.07,-16.03 0.21,-32.08 -0.32,-48.09 -1.19,-1.04 -2.45,-2.02 -3.35,-3.31 z"
         id="path111" /></g><g
       id="#4db6daff"><path
         fill="#4db6da"
         opacity="1"
         d="m 1448.42,410.38 c 0.44,-0.93 0.9,-1.85 1.41,-2.75 0.72,5.09 0.4,10.23 0.41,15.36 -0.03,7.71 0.2,15.43 0.2,23.15 -1.75,-2.15 -4.47,-4.07 -4.32,-7.14 -0.35,-7.31 -0.92,-14.66 -0.24,-21.97 0.82,-0.96 1.66,-1.91 2.51,-2.87 -0.04,-1.26 -0.03,-2.52 0.03,-3.78 z"
         id="path112" /></g><g
       id="#48b8ddff"><path
         fill="#48b8dd"
         opacity="1"
         d="m 1465.21,409.73 c 0.59,0.23 1.2,0.47 1.84,0.71 1.58,-0.56 3.24,-0.94 4.95,-1.02 v 38.98 c -1.95,0.82 -3.91,1.58 -5.85,2.37 0.07,-1.21 0.17,-2.41 0.28,-3.61 -1.23,0.26 -2.47,0.52 -3.65,0.8 -0.03,-11.97 -0.14,-23.94 0.02,-35.91 0.78,-0.78 1.59,-1.55 2.41,-2.32 z"
         id="path113" /></g><g
       id="#56c1e5ff"><path
         fill="#56c1e5"
         opacity="1"
         d="m 1347.35,410.34 c 1.33,0.91 2.67,1.82 4.03,2.74 0.03,3.25 0.08,6.5 0.07,9.76 -1.94,0.29 -3.85,0.58 -5.76,0.87 -0.04,-3.51 -0.11,-7.03 0.03,-10.53 0.51,-0.96 1.06,-1.91 1.63,-2.84 z"
         id="path114" /></g><g
       id="#50bce1ff"><path
         fill="#50bce1"
         opacity="1"
         d="m 1452.52,409.75 c 2.27,0.33 4.58,0.66 6.87,1.02 0.05,11.81 0.03,23.63 -0.04,35.45 -1.37,0.18 -2.7,0.37 -4.03,0.56 -0.88,-0.95 -1.76,-1.91 -2.6,-2.85 0.01,-11.4 -0.08,-22.79 -0.2,-34.18 z"
         id="path115" /></g><g
       id="#44afd6ff"><path
         fill="#44afd6"
         opacity="1"
         d="m 985.56,423.1 c -0.54,-2.96 0.31,-5.7 2.69,-7.6 3.67,8.69 6.8,17.61 10.56,26.27 0.32,-0.14 0.96,-0.43 1.28,-0.58 2.74,-7.61 5.4,-15.25 8.35,-22.79 4.79,2.79 8.48,6.98 12.44,10.77 -3.23,8.12 -7.02,16 -10.06,24.2 -3.02,-2.21 -6.41,-4.51 -10.34,-4.17 -3.03,0.46 -6.08,0.64 -9.12,0.31 -0.25,0.66 -0.75,2 -1,2.66 -5.56,-10.53 -10.38,-21.43 -15.47,-32.2 1.79,-2.06 4.62,-1.41 6.9,-0.69 1.27,1.25 2.01,3.11 3.77,3.82 z"
         id="path116" /></g><g
       id="#3ba4cbff"><path
         fill="#3ba4cb"
         opacity="1"
         d="m 970.4,417.05 c 5.71,11.52 10.62,23.43 16.96,34.63 1.22,2.28 3.22,3.96 5.13,5.64 0.09,2.04 -0.1,4.35 1.55,5.9 1.2,1.71 3.6,0.78 5.38,1.12 0.88,-1.25 2.58,-2.38 1.97,-4.13 -0.56,-1.79 -1.75,-3.28 -2.74,-4.83 -3.06,0.07 -6.55,-0.32 -8.29,-3.21 0.25,-0.66 0.75,-2 1,-2.66 3.04,0.33 6.09,0.15 9.12,-0.31 3.93,-0.34 7.32,1.96 10.34,4.17 -3.79,8.73 -7.22,17.63 -11.33,26.22 -1.91,-0.15 -4.49,0.53 -5.38,-1.73 -5.1,-8.34 -8.3,-17.66 -12.44,-26.49 -4.01,-8.34 -6.78,-17.24 -11.22,-25.37 0.4,-1.93 1.46,-3.97 0.84,-5.95 -0.9,-1.02 -2.19,-1.46 -3.34,-2.04 0.61,-0.24 1.84,-0.72 2.45,-0.96 z"
         id="path117" /></g><g
       id="#41a6ceff"><path
         fill="#41a6ce"
         opacity="1"
         d="m 1444.9,418.88 c 0.25,-0.46 0.74,-1.39 0.98,-1.85 -0.68,7.31 -0.11,14.66 0.24,21.97 -0.15,3.07 2.57,4.99 4.32,7.14 0.18,6.72 -0.29,13.41 -0.83,20.09 0.92,-0.76 3,-0.91 2.99,-2.48 0.49,-6.59 0.07,-13.22 0.12,-19.82 0.84,0.94 1.72,1.9 2.6,2.85 1.33,-0.19 2.66,-0.38 4.03,-0.56 -0.05,5.24 -0.07,10.49 0.03,15.74 0.15,4.04 -0.97,8.01 -0.59,12.05 1.02,0.84 2.04,1.69 3.08,2.57 0.02,1.8 0.07,3.6 0.13,5.41 -1.41,1.44 -3.49,2.77 -3.42,5.04 -0.11,3.56 5.1,5.96 7.58,3.14 2.83,-2.26 1.3,-6.75 -1.82,-7.9 -0.16,-2.45 -0.3,-4.95 0.49,-7.31 1.57,-2.82 0.23,-5.44 -2.15,-7.17 -0.14,-6.61 -0.18,-13.22 0.1,-19.83 1.18,-0.28 2.42,-0.54 3.65,-0.8 -0.11,1.2 -0.21,2.4 -0.28,3.61 1.94,-0.79 3.9,-1.55 5.85,-2.37 v 48.66 c -3.23,0.24 -6.45,0.17 -9.67,0.15 -0.89,0 -2.67,0 -3.56,-0.01 -9.56,-0.15 -19.16,0.46 -28.69,-0.35 0.02,-8.61 -0.47,-17.21 -0.26,-25.82 0.18,-8.63 -0.63,-17.29 0.37,-25.89 2.84,-0.19 5.69,-0.37 8.55,-0.49 1.37,-2.35 2.84,-4.81 2.9,-7.6 0.21,-6.37 -0.3,-12.76 0.62,-19.09 0.53,16.01 0.25,32.06 0.32,48.09 0.5,3.52 -5.62,4.03 -4.26,7.75 0.36,2.1 2.81,2.38 4.41,3.2 -0.25,1.32 -0.48,2.66 -0.71,4 -1.45,0.87 -3.08,1.58 -4.17,2.92 -1.44,2.45 -0.86,6.22 2.16,7.14 3.58,1.95 7.48,-2.64 6.01,-6.05 -0.68,-1.82 -2.52,-2.71 -3.94,-3.82 0.53,-2.16 1.24,-4.3 2.52,-6.15 0.59,-7.33 0.99,-14.69 0.44,-22.03 -0.39,-4.66 -0.5,-9.34 -0.08,-13.99 0.89,-6.71 -0.87,-13.43 -0.06,-20.14 z"
         id="path118" /></g><g
       id="#40a8cfff"><path
         fill="#40a8cf"
         opacity="1"
         d="m 1112.62,420.5 c 2.47,-1.12 4.81,-2.59 7.56,-2.98 0.02,7.48 0.04,14.96 0.03,22.45 -0.48,11.94 0.63,23.94 -0.47,35.87 -1.07,0.7 -2.15,1.39 -3.24,2.02 -0.25,0.13 -0.74,0.39 -0.98,0.52 -0.67,-0.72 -1.32,-1.43 -1.95,-2.13 -2.36,0.64 -4.71,1.28 -7.04,1.93 0.01,-19.17 0.13,-38.33 0.02,-57.5 2.02,-0.01 4.06,0.15 6.07,-0.18 z"
         id="path119" /></g><g
       id="#3fa6cdff"><path
         fill="#3fa6cd"
         opacity="1"
         d="m 1363.42,418.84 0.6,0.44 c 0.11,8.44 0.57,16.87 1.2,25.29 3.41,0.26 6.82,0.37 10.25,0.44 -0.17,17.14 -0.08,34.29 0.05,51.43 -5.04,1.65 -10.46,0.43 -15.67,0.85 -0.49,0 -1.49,0.01 -1.98,0.01 -9.52,0.06 -19.04,-0.21 -28.55,-0.01 -0.66,-1.02 -1.33,-2 -2.01,-2.97 0.27,-1.57 0.4,-3.16 0.63,-4.72 0.95,-7.34 0.38,-14.78 0.35,-22.16 0.18,-6.49 0.07,-12.98 0.14,-19.47 -0.04,-7.52 -0.02,-15.05 -0.01,-22.57 l 0.45,-0.71 c 1.05,-1.26 2.19,-2.44 3.33,-3.63 0.95,1.28 1.91,2.58 2.84,3.9 1.15,-0.81 2.33,-1.6 3.51,-2.37 1.35,1.29 2.93,2.29 4.7,2.95 0.04,13.68 0.21,27.37 -0.8,41.02 -3.09,2.68 -1.42,7.22 -2.89,10.7 -3.36,0.6 -4.41,3.98 -4.25,7 1.7,2.2 4.11,3.49 6.96,3.47 1.33,-1.34 3.42,-2.51 3.29,-4.7 0.68,-2.96 -2.11,-4.61 -3.92,-6.33 0.62,-1.95 0.75,-4.22 2.42,-5.64 3.89,-3.9 7.75,-8.01 10.14,-13.05 1.47,-5.82 0.16,-11.97 1.02,-17.9 0.54,1.33 1.05,2.7 1.79,3.97 1.05,0.89 2.45,0.37 3.69,0.29 0,10.29 -0.31,20.6 0.77,30.86 -2.22,1.84 -4.21,4.44 -3.03,7.49 1.24,5.08 10.38,3.77 9.39,-1.76 0.46,-2.86 -2.28,-4.26 -4.35,-5.4 -0.2,-18.9 0.02,-37.81 -0.06,-56.72 z"
         id="path120" /></g><g
       id="#46b0d6ff"><path
         fill="#46b0d6"
         opacity="1"
         d="m 1364.02,419.28 c 3.67,1.15 7.53,1.52 11.37,1.69 -0.04,8.01 0.1,16.02 0.08,24.04 -3.43,-0.07 -6.84,-0.18 -10.25,-0.44 -0.63,-8.42 -1.09,-16.85 -1.2,-25.29 z"
         id="path121" /></g><g
       id="#44acd2ff"><path
         fill="#44acd2"
         opacity="1"
         d="m 948.28,421.3 c 0.8,-0.25 2.34,0.48 2.26,-1.03 0.59,0.98 1.24,1.95 1.93,2.9 0.08,-0.97 0.17,-1.94 0.26,-2.9 1.15,-0.24 2.31,-0.47 3.49,-0.69 3.06,7.03 5.77,14.2 8.88,21.21 1.52,3.73 3.54,7.31 4.42,11.28 -0.59,2.61 -1.6,5.17 -1.18,7.92 -0.93,-1.45 -1.7,-2.99 -2.44,-4.53 -2.83,0.53 -4.79,2.57 -6.08,5.05 -2.05,-4.87 -3.81,-9.85 -5.88,-14.7 -3.42,-7.77 -7.07,-15.45 -9.85,-23.47 1.33,-0.51 2.72,-1.03 4.19,-1.04 z"
         id="path122" /></g><g
       id="#3ea3c9ff"><path
         fill="#3ea3c9"
         opacity="1"
         d="m 959.28,420.39 c 0.75,0 2.25,0 3.01,0 0.44,1.07 0.9,2.16 1.41,3.22 1.06,1.61 2.62,2.97 4.66,3.06 3.32,9.36 7.72,18.26 11.63,27.38 4.65,9.7 8.49,19.79 13.72,29.22 2.59,4.59 -0.29,9.69 -2.23,13.93 -4.99,10.66 -12,21.52 -23.25,26.28 -8.85,3.12 -18.27,0.88 -27.37,0.77 -0.96,-2.09 -2.29,-4.58 -5.03,-4.03 -4.78,-0.65 -5.9,7.07 -1.8,8.72 3.47,2.18 5.54,-2.87 8.97,-2.24 9.53,0.11 19.65,2.38 28.59,-2.13 10.96,-5.44 17.43,-16.63 22.62,-27.23 2.68,-5.96 6.43,-11.42 8.35,-17.7 4.24,-9.58 7.89,-19.41 12.17,-28.96 2.31,1.42 4.65,2.82 7.04,4.14 -3.95,9.64 -8.16,19.17 -12.15,28.79 -3.96,8.6 -7.06,17.68 -12.66,25.41 -5.91,8.22 -12.02,16.78 -20.69,22.29 -6.92,4.38 -15.36,4.3 -23.25,4.1 -4.35,-0.17 -8.77,0.27 -13.06,-0.59 -2.06,-1.04 -4.22,-1.96 -6.58,-1.53 0.02,2.19 0.05,4.39 0.1,6.59 0.59,-0.11 1.76,-0.34 2.35,-0.45 8.36,-3.43 17.45,-0.2 26.12,-1.61 9.88,-0.05 18.88,-5.33 25.53,-12.33 9.9,-10.77 17.4,-23.56 23.03,-37.02 4.72,-11.56 9.77,-22.99 14.67,-34.48 2.38,1.32 5.02,2.65 7.82,1.94 0.62,1.43 1.22,2.87 1.87,4.32 -7.37,16.84 -14.71,33.69 -21.65,50.72 -1.25,2.79 -2.58,5.55 -3.99,8.26 -6.55,12.77 -16.3,25.05 -30.18,30.12 -9.76,4.04 -20.43,4.71 -30.86,3.95 -10.02,-0.98 -20.03,-3.49 -28.84,-8.48 -0.98,-0.66 -2.59,-1.24 -2.21,-2.73 0.24,-3.15 1.72,-6.01 2.73,-8.95 2.6,-7.29 5.58,-14.45 8.04,-21.8 0.53,-1.42 1.15,-2.81 1.78,-4.18 5.58,3.52 11.4,7.18 18.14,7.8 5.77,1.11 12.18,0.53 17.13,-2.89 5.77,-4.53 10.49,-12.73 7.42,-20.06 -3.91,-10.6 -8.22,-21.06 -12.56,-31.5 1.29,-2.48 3.25,-4.52 6.08,-5.05 0.74,1.54 1.51,3.08 2.44,4.53 0.82,0.88 1.65,1.73 2.51,2.6 1.19,-0.43 2.38,-0.85 3.59,-1.27 0.23,-1.01 0.47,-2.01 0.72,-3 -2,1.8 -4.7,1.14 -5.9,-1.19 0.83,-1.48 1.79,-2.92 3.72,-2.87 -3.89,-11.56 -9.09,-22.6 -13.7,-33.87 z"
         id="path123" /></g><g
       id="#3badd4ff"><path
         fill="#3badd4"
         opacity="1"
         d="m 1038.63,421.68 c 3.75,0.1 7.44,-0.56 11.08,-1.37 0.23,0.7 0.69,2.1 0.92,2.8 -3.31,8.22 -6.89,16.34 -10.37,24.5 -1.86,4.18 -3.55,8.44 -5.39,12.64 -0.65,-1.45 -1.25,-2.89 -1.87,-4.32 -2.8,0.71 -5.44,-0.62 -7.82,-1.94 4.38,-10.81 8.9,-21.57 13.45,-32.31 z"
         id="path124" /></g><g
       id="#f2f7faff"><path
         fill="#f2f7fa"
         opacity="1"
         d="m 903.37,421.53 c 1.06,0.03 2.98,-0.98 3.21,0.79 0.88,2.55 1.32,5.23 1.88,7.88 0.31,4.92 0.52,9.9 -0.04,14.82 -2.18,13.01 -10.97,24.6 -22.59,30.71 -14.8,7.33 -31.57,8.84 -47.82,9.6 -13.06,-0.03 -26.37,-0.38 -38.92,-4.34 -2.36,-0.74 -4.72,-1.41 -7.1,-2.03 -0.72,0.81 -1.41,1.64 -2.09,2.48 -1.36,0.02 -2.71,0.01 -4.05,-0.05 -2,-0.78 -1.65,-3.07 -1.51,-4.76 2.22,-0.79 4.36,-1.96 6.75,-2.16 3.93,4.22 10.15,4.3 15.37,5.94 9.69,2.12 19.65,2.35 29.53,2.23 14.42,0.14 29.09,-1.43 42.64,-6.57 8.68,-3.2 16.6,-8.97 21.58,-16.85 5.33,-8.41 7.25,-18.86 5.63,-28.65 -0.53,-3.09 -1.38,-6.11 -2.47,-9.04 z"
         id="path125" /></g><g
       id="#3fa5caff"><path
         fill="#3fa5ca"
         opacity="1"
         d="m 1168.2,421 c 1.61,2.26 3.07,4.78 5.51,6.28 2.74,1.85 6.19,1.61 9.36,1.88 1.43,10.97 3.7,22.3 10.26,31.49 5.74,9.54 15.04,16.36 24.95,21.1 14.38,7.08 31.12,8.76 46.75,5.57 11.3,-2.42 21.36,-8.45 30.96,-14.65 0.79,0.17 2.37,0.51 3.15,0.69 2.5,0.79 4.05,-1.61 5.52,-3.16 -0.24,-2.01 -0.25,-4.36 -2.1,-5.63 -1.9,-0.67 -3.92,-0.23 -5.85,-0.12 -0.68,0.81 -1.35,1.63 -2.01,2.44 -0.03,1.33 -0.05,2.67 -0.05,4.01 -9.67,5.8 -19.7,11.59 -30.87,13.88 -23.89,5.43 -50.55,-3.43 -66.24,-22.3 -6.66,-9.07 -10.6,-20.15 -11.26,-31.37 0.48,-1.78 1.84,-2.87 3.48,-3.49 1.15,0.79 2.32,1.57 3.51,2.36 1.27,13.24 6.02,26.64 15.67,36.11 7.26,6.82 16.32,11.72 26.01,14.06 7.21,1.66 14.71,3.03 22.09,1.63 10.84,-1.3 21.04,-6.37 29.19,-13.54 2.48,-0.64 5.14,-0.71 7.47,-1.9 -0.01,-1.54 0.01,-3.08 0.06,-4.61 -1.47,-2.09 -3.99,-2.56 -6.36,-2.15 -2.29,1.58 -2.3,4.7 -2.99,7.14 -9.19,8.03 -21.11,13.11 -33.42,12.85 -20.49,0.68 -42.59,-10.46 -50.48,-30.11 2.37,-1.61 4.76,-3.18 7.17,-4.73 1.14,3.08 2.62,6.14 5.17,8.31 -0.27,2.19 -0.87,4.43 -0.37,6.63 0.4,1.53 2.17,1.95 3.32,2.81 1.35,-0.37 2.73,-0.73 4.12,-1.07 13.01,11.67 33.19,14.03 48.78,6.32 3.59,-2.31 8.17,0.11 11.72,-2.31 0.05,-2.01 0.45,-3.97 0.99,-5.9 2.58,-1.7 5.28,-3.27 8.28,-4.16 -0.07,-1.57 -0.18,-3.13 -0.31,-4.68 -1.88,-0.21 -3.77,-0.28 -5.64,-0.17 -0.06,2.97 -0.67,5.94 -2.57,8.31 -2.52,-0.09 -5.35,-0.82 -7.49,0.89 -1.57,0.92 -1.93,2.82 -2.63,4.34 -13.72,7.41 -31.16,7.64 -44.56,-0.6 -0.09,-0.83 -0.16,-1.65 -0.2,-2.47 1.78,-0.8 3.88,-1.74 2.47,-4.01 0.39,-0.48 1.16,-1.43 1.55,-1.9 8.65,6.57 20.43,7.64 30.74,5.09 5.93,-1.37 11.15,-4.89 15.24,-9.32 1.39,-1.43 2.8,-2.84 4.18,-4.28 1.55,-1.64 2.82,-3.51 4.08,-5.38 5.4,0.72 9.44,5.03 14.23,7.34 4.09,2.63 8.11,5.37 12.33,7.8 2.77,1.59 5.47,3.33 7.83,5.51 -3.21,7.34 -8.69,13.28 -14.13,19.03 -7.87,7.78 -17.76,13.3 -28.22,16.77 -12.96,4.53 -27.06,4.81 -40.53,2.74 -8.84,-1.06 -17.26,-4.22 -25.28,-7.96 -17.66,-9.18 -31.4,-25.14 -38.35,-43.74 -2.93,-6.82 -3.86,-14.24 -4.85,-21.53 0.09,-2.06 0.35,-4.1 0.62,-6.14 z"
         id="path126" /></g><g
       id="#70788eff"><path
         fill="#70788e"
         opacity="1"
         d="m 0,420.75 c 1.56,2.14 1.66,4.78 1.89,7.31 C 1.28,426.68 0.64,425.31 0,423.95 Z"
         id="path127" /></g><g
       id="#41aed4ff"><path
         fill="#41aed4"
         opacity="1"
         d="m 1014.73,450.68 c 4.18,-9.61 8.27,-19.25 11.96,-29.06 1.13,3.03 4.09,4.11 6.96,4.92 -3.7,9.53 -7.91,18.86 -11.88,28.28 -2.39,-1.32 -4.73,-2.72 -7.04,-4.14 z"
         id="path128" /></g><g
       id="#4db0d6ff"><path
         fill="#4db0d6"
         opacity="1"
         d="m 1345.69,423.71 c 1.91,-0.29 3.82,-0.58 5.76,-0.87 -0.07,7.4 0.04,14.81 0.04,22.21 -1.95,-0.03 -3.87,-0.05 -5.79,-0.07 -0.01,-7.09 0.02,-14.18 -0.01,-21.27 z"
         id="path129" /></g><g
       id="#44aad1ff"><path
         fill="#44aad1"
         opacity="1"
         d="m 1132.15,424.68 c 1.22,-0.2 2.45,-0.43 3.71,-0.5 0.91,0.86 1.66,1.88 2.48,2.88 -0.01,8.95 0.06,17.91 -0.02,26.86 -0.87,0.81 -1.74,1.63 -2.59,2.45 -0.33,0.05 -1.01,0.15 -1.34,0.21 -0.17,-1.52 -0.27,-3.05 -0.59,-4.53 -3.3,-8.76 -1.11,-18.26 -1.65,-27.37 z"
         id="path130" /></g><g
       id="#f5fbfdff"><path
         fill="#f5fbfd"
         opacity="1"
         d="m 896.58,424.87 c 2.67,1.83 2.52,5.52 3.53,8.32 1.31,7.45 0.15,15.45 -4.01,21.85 -5.26,8.96 -14.58,14.94 -24.5,17.53 -19.3,5.28 -39.68,4.34 -59.3,1.59 -3.44,-0.71 -6.84,-1.64 -10.24,-2.5 -1.14,-0.28 -1.94,-0.97 -2.4,-2.08 4.06,-0.88 7.83,1.15 11.76,1.81 13.17,2.42 26.65,2.69 40,2.08 1.9,-2.09 3.95,-4.05 5.49,-6.43 3.48,-0.45 6.58,-2.73 7.11,-6.37 1.65,-0.06 3.32,-0.09 4.99,-0.09 0.79,1.88 1.48,3.8 2.02,5.77 -3.66,1.14 -7.49,1.41 -11.3,1.27 -0.91,1.6 -1.22,3.4 -0.34,5.11 11.54,-1.68 23.81,-5.48 31.57,-14.72 6.09,-6.96 8.53,-16.88 6.4,-25.87 -0.36,-2.41 -1.69,-4.83 -0.78,-7.27 z"
         id="path131" /></g><g
       id="#ecececff" /><g
       id="#3ea4caff"><path
         fill="#3ea4ca"
         opacity="1"
         d="m 909.36,426.45 c 3.25,0.62 6.57,0.86 9.85,1.37 1.86,0.28 2.99,2.32 2.84,4.1 0.17,5.14 -0.38,10.33 0.67,15.41 l -0.08,0.75 c -2.2,15.49 -11.63,29.51 -24.45,38.3 -6.82,5.2 -14.96,8.27 -23.18,10.43 -5.05,0.83 -9.91,2.72 -15.05,2.86 -18.37,1.89 -37.05,0.99 -55.1,-3.01 -7.36,-1.29 -14.54,-3.52 -21.61,-5.91 0.58,0.04 1.74,0.13 2.32,0.18 -0.9,-1.64 -3.21,-3.28 -2.03,-5.3 1.53,-0.62 3.21,-0.33 4.83,-0.33 0.47,-1.3 0.94,-2.61 1.53,-3.86 0.68,-0.84 1.37,-1.67 2.09,-2.48 2.38,0.62 4.74,1.29 7.1,2.03 12.55,3.96 25.86,4.31 38.92,4.34 16.25,-0.76 33.02,-2.27 47.82,-9.6 11.62,-6.11 20.41,-17.7 22.59,-30.71 0.56,-4.92 0.35,-9.9 0.04,-14.82 0.26,-1.27 0.57,-2.51 0.9,-3.75 z"
         id="path132" /></g><g
       id="#6d7396ff"><path
         fill="#6d7396"
         opacity="1"
         d="m 1163.3,458.14 c -2,-10.7 -2.82,-21.7 -1.45,-32.52 l 1.68,-0.5 c -0.54,9.34 -0.86,18.8 0.87,28.05 2.85,17.74 12.72,33.56 25.48,45.92 5.17,5.13 10.82,9.81 17.08,13.56 1.12,0.68 2.25,1.32 3.41,1.98 12.47,7.14 26.54,11 40.71,12.84 1.4,-7.01 12.76,-6.98 14.18,-0.01 2.21,5.85 -4.54,12.08 -10.19,9.42 -3.23,-1 -3.99,-4.51 -4.8,-7.34 -13.62,-1.66 -26.94,-5.76 -39.1,-12.1 -2.92,-1.61 -5.7,-3.43 -8.57,-5.09 -18.58,-13.03 -33.64,-31.99 -39.3,-54.21 m 90.58,74.94 c 1.38,2.47 4.52,1.56 6.84,1.55 1.86,-1.64 3.51,-3.99 2.33,-6.57 -0.66,-3.35 -4.53,-3.8 -7.32,-3.55 -2.32,2.1 -3.45,5.7 -1.85,8.57 z"
         id="path133" /></g><g
       id="#45a6caff"><path
         fill="#45a6ca"
         opacity="1"
         d="m 900.11,433.19 c 1.91,-0.88 3.8,-1.76 5.73,-2.62 1.62,9.79 -0.3,20.24 -5.63,28.65 -4.98,7.88 -12.9,13.65 -21.58,16.85 -2.22,-1.41 -4.59,-2.57 -7.03,-3.5 9.92,-2.59 19.24,-8.57 24.5,-17.53 4.16,-6.4 5.32,-14.4 4.01,-21.85 z"
         id="path134" /></g><g
       id="#fefffeff"><path
         fill="#fefffe"
         opacity="1"
         d="m 1335.31,484.26 c -0.16,-3.02 0.89,-6.4 4.25,-7 0.52,-0.14 1.56,-0.42 2.08,-0.56 1.81,1.72 4.6,3.37 3.92,6.33 0.13,2.19 -1.96,3.36 -3.29,4.7 -2.85,0.02 -5.26,-1.27 -6.96,-3.47 z"
         id="path135" /></g><g
       id="#44a5cbff"><path
         fill="#44a5cb"
         opacity="1"
         d="m 1345.7,444.98 c 1.92,0.02 3.84,0.04 5.79,0.07 -0.12,4 0.18,8.03 -0.28,12.02 -1.24,3.95 -4.1,7.11 -6.99,9.97 2.22,-7.15 1.23,-14.7 1.48,-22.06 z"
         id="path136" /></g><g
       id="#eff1f0ff-1" /><g
       id="#efefefff-7" /><g
       id="#3fb5daff"><path
         fill="#3fb5da"
         opacity="1"
         d="m 185.9,463 c 8.65,-4.92 16.14,-11.92 25.37,-15.82 -0.03,4.66 0.02,9.32 0.05,13.99 -3.51,2.38 -7.14,4.57 -10.65,6.95 -0.33,0.22 -0.99,0.68 -1.32,0.91 -8.17,5.28 -16.68,10.04 -24.7,15.57 -3.98,2.61 -7.5,5.84 -11.41,8.54 -7.77,5.12 -14.73,11.35 -21.92,17.23 -3.09,2.62 -6.14,5.3 -9.27,7.89 -15.31,13.22 -30,27.21 -43.64,42.16 -4.06,3.91 -7.01,8.77 -10.81,12.93 -5.76,6.87 -10.42,14.65 -13.7,22.99 -2.87,6.46 -2.97,13.67 -2.58,20.61 0.13,3.29 1.58,6.31 3.29,9.07 4.23,7.14 11.82,11.36 19.37,14.21 15.5,6.05 32.28,8.42 48.85,8.11 8.05,-0.12 16.14,0.44 24.14,-0.65 5.01,-0.23 9.98,-0.99 15,-1.01 4.61,-0.09 9.27,-0.04 13.81,-1 1.95,0.25 3.88,0.63 5.82,1.03 -0.49,1.16 -0.98,2.32 -1.46,3.49 0.22,0.33 0.65,0.97 0.86,1.3 1.3,-0.12 2.59,-0.22 3.9,-0.32 0.78,1.1 1.55,2.22 2.33,3.34 3.78,-0.15 7.49,-1.52 11.25,-1.26 0.48,0.58 1.46,1.74 1.94,2.32 -3.31,0.13 -6.46,1.16 -9.69,1.79 -7.56,0.96 -15.14,2.03 -22.8,2.2 -6.27,0.85 -12.6,0.98 -18.92,0.93 -4.37,-0.17 -8.63,1.11 -12.99,0.94 -9.33,-0.11 -18.69,0.33 -28,-0.43 -17.8,-1.84 -36.01,-5.7 -51.03,-15.97 -3.95,-2.57 -7.2,-6.02 -10.3,-9.53 -6.02,-7.81 -9.5,-18 -7.82,-27.87 1.25,-11.4 5.92,-22.2 11.89,-31.9 1.88,-3.1 4.02,-6.03 6.16,-8.95 5.1,-7.1 10.84,-13.71 16.94,-19.97 10.66,-11.44 22,-22.24 33.81,-32.47 6.35,-6.5 13.93,-11.61 20.57,-17.77 9.17,-3.32 18.36,-7.09 26.06,-13.22 7.72,-6.17 16.05,-11.99 21.6,-20.36 z"
         id="path137" /></g><g
       id="#f8fbfdff" /><g
       id="#fffffeff-1" /><g
       id="#fdffffff-1" /><g
       id="#fcfdfdff-5" /><g
       id="#fdfdffff"><path
         fill="#fdfdff"
         opacity="1"
         d="m 1296.71,464.45 c 1.93,-0.11 3.95,-0.55 5.85,0.12 1.85,1.27 1.86,3.62 2.1,5.63 -1.47,1.55 -3.02,3.95 -5.52,3.16 -1.53,-0.78 -3.02,-1.63 -4.49,-2.46 0,-1.34 0.02,-2.68 0.05,-4.01 0.66,-0.81 1.33,-1.63 2.01,-2.44 z"
         id="path138" /></g><g
       id="#f6f6f6ff-2" /><g
       id="#38a4c9ff"><path
         fill="#38a4c9"
         opacity="1"
         d="m 757.3,474.07 c 1.75,-1.18 3.41,-2.65 5.44,-3.34 2.6,-0.2 5.19,0.29 7.79,0.54 -1.1,2.68 -2.9,5.01 -5.79,5.88 2.3,0.42 4.73,0.75 6.66,2.22 -1.32,-0.05 -2.63,-0.11 -3.92,-0.18 0.32,0.87 0.65,1.75 0.99,2.64 -0.69,0.53 -1.36,1.07 -2.02,1.61 1.06,0.46 2.16,0.92 3.23,1.45 -2.29,-1.12 -4.49,0.39 -6.53,1.28 -7.43,3.57 -15.08,6.63 -22.62,9.96 -11.5,4.59 -22.79,9.68 -34.28,14.3 -9.94,3.86 -19.83,7.83 -29.72,11.8 -23.75,9 -47.41,18.28 -71.36,26.74 -7.42,2.85 -14.96,5.36 -22.51,7.82 -4.62,-5.53 -12.92,-2.89 -18.5,-6.46 2.35,-0.87 4.7,-1.76 7.06,-2.64 11.71,-4.23 23.43,-8.43 35.14,-12.65 19.93,-6.99 39.69,-14.49 59.3,-22.33 2.91,-1.08 5.85,-2.06 8.75,-3.16 10.78,-4.08 21.18,-9.06 32.04,-12.95 11.79,-4.43 23.14,-9.93 34.83,-14.62 5.11,-2.06 10.13,-4.33 15.27,-6.34 0.18,-0.39 0.56,-1.18 0.75,-1.57 z"
         id="path139" /></g><g
       id="#7e829bff"><path
         fill="#7e829b"
         opacity="1"
         d="m 931.94,473.95 c 2.35,-3.25 7.13,-3.29 10.28,-1.22 3.97,3.43 3.65,10.45 -1.12,13.04 -2.73,0.95 -5.54,0.46 -8.09,-0.72 -8.97,8.66 -17.56,17.71 -26.53,26.37 -3.78,3.62 -7.38,7.42 -11.01,11.18 -6.51,0.1 -13.03,0.1 -19.54,0.09 -22.63,-0.12 -45.26,-0.09 -67.89,-0.03 -9.39,0.06 -18.78,-0.1 -28.17,-0.01 -1.28,2.04 -2.31,4.48 -4.47,5.74 -2.21,0.74 -4.59,0.22 -6.86,0.2 -1.52,-1.64 -3.56,-3.16 -3.81,-5.55 -1.1,-4.33 2.79,-9.27 7.33,-8.71 3.78,-0.34 6.48,2.98 7.68,6.19 9.42,-0.15 18.84,-0.15 28.27,-0.11 22.41,0.11 44.83,0.03 67.25,-0.01 6.28,-0.09 12.57,0.22 18.84,-0.09 3.37,-2.01 5.72,-5.4 8.61,-8.02 9.47,-9.52 19.1,-18.86 28.53,-28.42 -1.09,-3.17 -2.06,-7.32 0.7,-9.92 m 2.62,0.53 c -1.42,2.03 -3.21,4.96 -1.16,7.2 1.21,2.65 4.62,2.4 6.95,1.64 2.44,-1.6 2.4,-4.71 1.98,-7.27 -2.07,-2.18 -5.03,-2.77 -7.77,-1.57 m -165.37,42.71 c -4.48,2.21 -2.18,9.97 2.78,9.42 3.53,0.73 5.88,-3.68 5,-6.66 -0.79,-3.22 -5.11,-4.45 -7.78,-2.76 z"
         id="path140" /></g><g
       id="#fdfefeff"><path
         fill="#fdfefe"
         opacity="1"
         d="m 1137.07,471.35 c 0.8,1.9 0.64,4 0.77,6.02 1.2,0.97 2.53,1.83 3.55,3.04 1.05,2.61 0.02,5.29 -1.92,7.13 -1.71,0 -3.41,0.02 -5.09,0.06 -0.95,-1.41 -2.28,-2.78 -2.09,-4.61 -0.42,-2.37 1.95,-3.56 3.13,-5.2 0.17,-1.49 0.01,-2.99 -0.02,-4.47 0.42,-0.49 1.25,-1.48 1.67,-1.97 z"
         id="path141" /></g><g
       id="#3ea1c5ff"><path
         fill="#3ea1c5"
         opacity="1"
         d="m 812.3,474.16 c 19.62,2.75 40,3.69 59.3,-1.59 2.44,0.93 4.81,2.09 7.03,3.5 -13.55,5.14 -28.22,6.71 -42.64,6.57 -9.88,0.12 -19.84,-0.11 -29.53,-2.23 1.66,-2.34 3.64,-4.42 5.84,-6.25 z"
         id="path142" /></g><g
       id="#fcfcfcff"><path
         fill="#fcfcfc"
         opacity="1"
         d="m 934.56,474.48 c 2.74,-1.2 5.7,-0.61 7.77,1.57 0.42,2.56 0.46,5.67 -1.98,7.27 -2.33,0.76 -5.74,1.01 -6.95,-1.64 -2.05,-2.24 -0.26,-5.17 1.16,-7.2 z"
         id="path143" /></g><g
       id="#d4e8efff"><path
         fill="#d4e8ef"
         opacity="1"
         d="m 1461.87,476.58 c 0.98,-0.53 1.96,-1.07 2.96,-1.62 -0.79,2.36 -0.65,4.86 -0.49,7.31 -0.59,-0.07 -1.76,-0.21 -2.34,-0.28 -0.06,-1.81 -0.11,-3.61 -0.13,-5.41 z"
         id="path144" /></g><g
       id="#778097ff"><path
         fill="#778097"
         opacity="1"
         d="m 1034.32,479.76 c -0.84,-2.28 2.15,-2.33 3.68,-2.31 4.55,0.87 7.81,6.13 6.02,10.53 -0.91,3.23 -4.41,4.55 -7.4,5.07 -0.28,6.3 -0.05,12.61 0.01,18.92 -0.27,3.27 1.22,7.46 -1.84,9.79 -8.59,8.42 -16.76,17.26 -25.42,25.61 -6.96,6.67 -13.48,13.94 -20.66,20.27 -15.24,0.49 -30.52,-0.08 -45.76,0.23 -15.96,0.3 -31.91,-0.15 -47.86,0.01 -0.61,6.93 -11.4,8.15 -14.3,2.24 -2.56,-4.91 1.51,-11.71 7.2,-11.02 4,-0.49 6.21,3.43 7.78,6.44 30.85,-0.06 61.7,0.25 92.55,-0.08 0.28,-0.27 0.84,-0.8 1.12,-1.06 7.14,-7.34 14.5,-14.45 21.7,-21.74 7.94,-7.62 15.29,-15.84 23.26,-23.45 0.14,-6.41 0.2,-12.82 0.17,-19.22 -0.11,-3.22 0.76,-6.85 -1.48,-9.53 2.34,-0.18 5.1,0.33 7.03,-1.36 2.27,-1.52 2.01,-4.94 0.75,-7.03 -1.27,-2.41 -4.38,-1.57 -6.55,-2.31 m -150.63,83.01 c -1.07,1.93 -1.27,4.11 -1.04,6.29 1.09,0.79 2.17,1.61 3.26,2.46 2.33,-0.06 5.16,0.11 6.55,-2.2 0.43,-2.41 1.04,-5.82 -1.65,-7.13 -2.16,-1.63 -5.03,-0.64 -7.12,0.58 z"
         id="path145" /></g><g
       id="#fcfdfeff"><path
         fill="#fcfdfe"
         opacity="1"
         d="m 1462,481.99 c 0.58,0.07 1.75,0.21 2.34,0.28 3.12,1.15 4.65,5.64 1.82,7.9 -2.48,2.82 -7.69,0.42 -7.58,-3.14 -0.07,-2.27 2.01,-3.6 3.42,-5.04 z"
         id="path146" /></g><g
       id="#a1abaeff"><path
         fill="#a1abae"
         opacity="1"
         d="m 1326.52,504.99 c 0.06,-3.55 -1.14,-7.41 0.79,-10.67 0.68,0.97 1.35,1.95 2.01,2.97 l 0.45,0.77 c -0.05,4.41 -0.12,8.82 -0.06,13.23 -0.04,8.17 0.08,16.35 -0.1,24.53 -1.51,1.45 -3.49,2.07 -5.56,1.9 -13.69,-0.08 -27.36,0.77 -41.05,0.48 -3.47,-0.31 -6.52,1.75 -9.95,1.77 -1.51,-1.95 -1.9,-4.43 -1.24,-6.78 3.46,-0.1 6.67,1.52 10.13,1.41 12.01,-0.1 24.02,-0.06 36.03,-0.1 2.85,-0.08 5.93,0.46 8.55,-1.03 -0.01,-9.49 0.13,-18.99 0,-28.48 z"
         id="path147" /></g><g
       id="#9ba5aaff"><path
         fill="#9ba5aa"
         opacity="1"
         d="m 1131.32,497.2 c 1.04,0 2.1,0 3.17,0.02 0,0.49 -0.02,1.46 -0.02,1.94 -0.06,4.02 0.02,8.04 0.06,12.07 0.08,20.29 -0.02,40.58 0.09,60.88 1.3,0.94 2.62,1.88 3.98,2.77 2.44,3.26 3.46,8.68 -0.03,11.59 -3.89,4.08 -12.05,2.15 -13.38,-3.45 -1.32,-2.82 0.45,-5.61 1.81,-8.01 0.84,-0.57 1.69,-1.13 2.55,-1.7 0.43,-0.3 1.29,-0.91 1.71,-1.21 0.16,-24.96 -0.01,-49.93 0.06,-74.9 m -1.36,79.76 c -1.92,1.05 -1.46,3.42 -1.61,5.23 1.07,1.73 2.8,2.7 4.71,3.29 3.23,-0.61 5.1,-3.44 4.49,-6.66 -1.47,-2.52 -5.3,-4.39 -7.59,-1.86 z"
         id="path148" /></g><g
       id="#646a89ff"><path
         fill="#646a89"
         opacity="1"
         d="m 1357.87,497.3 c 0.49,0 1.49,-0.01 1.98,-0.01 -0.08,4.62 -0.08,9.25 -0.03,13.88 0.28,17.15 -0.25,34.32 0.28,51.46 2.44,0.84 4.27,2.67 6.1,4.42 0.4,2.74 0.13,5.51 -1.1,8.03 -1.95,0.99 -3.69,2.82 -6.05,2.54 -2.59,0.11 -4.51,-1.88 -6.27,-3.47 -3.02,-4.52 0.11,-10.3 5.02,-11.57 0.21,-17.15 0.09,-34.31 0.08,-51.46 0.02,-4.61 -0.02,-9.22 -0.01,-13.82 m -2.34,68.49 c -1.8,1.97 -2.75,5.12 -0.62,7.26 1.67,2.45 4.82,1.65 7.32,1.45 2.64,-2.52 2.64,-6.49 -0.02,-8.98 -1.44,-0.01 -2.82,-0.38 -4.14,-0.81 -0.64,0.27 -1.9,0.81 -2.54,1.08 z"
         id="path149" /></g><g
       id="#9da8adff"><path
         fill="#9da8ad"
         opacity="1"
         d="m 1458.77,497.2 c 0.89,0.01 2.67,0.01 3.56,0.01 0.02,4.89 -0.01,9.78 0,14.67 0.12,10.94 0.02,21.87 0.03,32.81 2.23,1.76 5.08,3.33 5.85,6.31 1.38,4.3 -1.17,10.25 -6.16,10.44 -4.91,1.17 -10.09,-3.48 -9.46,-8.49 0.07,-3.78 3.38,-6.08 6,-8.24 0.2,-11.14 0.1,-22.27 0.13,-33.41 -0.05,-4.7 -0.06,-9.4 0.05,-14.1 m -2.4,57.53 c 0.37,2.31 2.68,3.1 4.64,3.69 4.28,-0.42 6.28,-6.44 2.47,-8.85 -3.34,-2.85 -8.66,1.18 -7.11,5.16 z"
         id="path150" /></g><g
       id="#eaeaeaff" /><g
       id="#3fb4daff"><path
         fill="#3fb4da"
         opacity="1"
         d="m 85.85,511.9 c 1.78,-1.63 3.89,-2.8 6.02,-3.9 -0.1,0.78 -0.3,2.34 -0.4,3.11 -9.26,8.54 -17.98,17.63 -26.56,26.84 -10.64,11.32 -20.4,23.55 -28.31,36.95 -6.49,11.45 -12.15,23.6 -14.88,36.54 -0.77,9.39 -0.6,19.18 3.79,27.76 7.25,16.42 23.41,27.03 40.07,32.2 8.61,2.31 17.24,4.82 26.11,5.85 3.61,1.56 7.53,1.13 11.34,1.49 9.62,2.01 19.5,1.52 29.27,1.76 13.23,-0.06 26.54,-0.15 39.66,-1.95 2.67,-0.17 5.35,-0.01 8.01,-0.28 9.05,-1.45 18.21,-1.94 27.27,-3.38 20.71,-2.91 41.5,-5.28 61.98,-9.51 9.01,-1.8 17.95,-4.47 27.18,-4.69 -0.99,1.18 -1.88,2.69 -3.48,3.13 -8.6,2.33 -17.52,3.19 -26.13,5.44 -13.21,2.24 -26.39,4.72 -39.68,6.45 -4.36,1.39 -9.05,0.53 -13.39,2.02 -4.81,0.87 -9.74,0.84 -14.54,1.91 -6.45,0.28 -12.77,1.74 -19.21,1.97 -21,2.14 -42.16,2.19 -63.26,2 -14.34,-1.58 -28.93,-2.14 -42.87,-6.24 -2.85,-0.8 -5.8,-1.28 -8.56,-2.42 C 51.37,670.39 37.85,663 28.61,651.38 c -3.29,-4.37 -6.01,-9.2 -7.85,-14.36 -1.98,-6.79 -3.68,-13.84 -3.04,-20.96 1.82,-13.85 6.83,-27.12 13.67,-39.24 9.18,-16.58 21.08,-31.56 34.42,-44.96 6.37,-6.97 13.43,-13.24 20.04,-19.96 z"
         id="path151" /></g><g
       id="#fafafaff"><path
         fill="#fafafa"
         opacity="1"
         d="m 1098.45,515.58 c 2.08,-0.81 4.74,-0.18 6.05,1.73 1.05,2.77 0.23,7.15 -3.47,7.02 -4.81,0.44 -6.74,-6.47 -2.58,-8.75 z"
         id="path152" /></g><g
       id="#f2f3f4ff"><path
         fill="#f2f3f4"
         opacity="1"
         d="m 769.19,517.19 c 2.67,-1.69 6.99,-0.46 7.78,2.76 0.88,2.98 -1.47,7.39 -5,6.66 -4.96,0.55 -7.26,-7.21 -2.78,-9.42 z"
         id="path153" /></g><g
       id="#fdfdfdff"><path
         fill="#fdfdfd"
         opacity="1"
         d="m 1071.61,545.87 c 2.29,-3.44 9.65,-1.63 8.16,3.19 0.15,3.55 -3.95,3.82 -6.53,3.55 -2.21,-1.55 -2.42,-4.37 -1.63,-6.74 z"
         id="path154" /></g><g
       id="#f2f2f2ff"><path
         fill="#f2f2f2"
         opacity="1"
         d="m 883.69,562.77 c 2.09,-1.22 4.96,-2.21 7.12,-0.58 2.69,1.31 2.08,4.72 1.65,7.13 -1.39,2.31 -4.22,2.14 -6.55,2.2 -1.09,-0.85 -2.17,-1.67 -3.26,-2.46 -0.23,-2.18 -0.03,-4.36 1.04,-6.29 z"
         id="path155" /></g><g
       id="#e8ebecff" /><g
       id="#eaebecff"><path
         fill="#eaebec"
         opacity="1"
         d="m 1129.96,576.96 c 2.29,-2.53 6.12,-0.66 7.59,1.86 0.61,3.22 -1.26,6.05 -4.49,6.66 -1.91,-0.59 -3.64,-1.56 -4.71,-3.29 0.15,-1.81 -0.31,-4.18 1.61,-5.23 z"
         id="path156" /></g><g
       id="#3fb8deff"><path
         fill="#3fb8de"
         opacity="1"
         d="m 407.22,599.63 c 15.97,-4.35 31.81,-9.17 47.67,-13.93 1.2,1.79 2.39,3.61 3.57,5.44 -3.38,2 -7.52,2.28 -10.67,4.73 0.36,1.63 0.71,3.26 1.05,4.91 -15.54,4.68 -31.08,9.36 -46.71,13.74 -21.72,5.8 -43.51,11.39 -65.29,16.96 -10.29,2.32 -20.5,4.93 -30.76,7.34 -12.5,2.22 -24.92,5 -37.37,7.4 -19.27,4.04 -38.78,6.87 -58.29,9.36 -0.48,-0.58 -1.46,-1.74 -1.94,-2.32 -3.76,-0.26 -7.47,1.11 -11.25,1.26 -0.78,-1.12 -1.55,-2.24 -2.33,-3.34 -1.31,0.1 -2.6,0.2 -3.9,0.32 -0.21,-0.33 -0.64,-0.97 -0.86,-1.3 0.48,-1.17 0.97,-2.33 1.46,-3.49 -1.94,-0.4 -3.87,-0.78 -5.82,-1.03 4.81,-0.49 9.7,-0.28 14.36,-1.82 9.18,-0.84 18.28,-2.38 27.41,-3.67 14.99,-1.84 29.85,-4.5 44.62,-7.6 21.76,-4.57 43.5,-9.31 65.02,-14.96 23.37,-5.87 46.76,-11.72 70.03,-18 z"
         id="path157" /></g><g
       id="#eeeeedff-7" /><g
       id="#41b8dcff"><path
         fill="#41b8dc"
         opacity="1"
         d="m 310.91,649.01 c 2.16,-4.21 7.03,-5.93 11.52,-5.79 5.29,1.03 9.79,4.77 11.9,9.71 0,3.91 0.94,8.35 -1.54,11.75 -3.38,5.85 -12.14,8.18 -17.72,4.18 -6.69,-3.95 -8.37,-13.52 -4.16,-19.85 z"
         id="path158" /></g></g></svg>
